<?xml version="1.0" encoding="UTF-8"?>
<svg id="Layer_1" data-name="Layer 1" xmlns="http://www.w3.org/2000/svg" viewBox="0 0 887.1 1832.26">
  <defs>
    <style>
      .cls-1 {
        fill: none;
        stroke: #000;
        stroke-miterlimit: 10;
      }

      .cls-2 {
        stroke-width: 0px;
      }

      .cls-3 {
        font-family: Montserrat-Italic, Montserrat;
        font-size: 65px;
        font-style: italic;
      }
    </style>
  </defs>
  <line class="cls-1" x1="441.39" y1="49.06" x2="441.39" y2="1766.06"/>
  <g>
    <line class="cls-1" x1="408.39" y1="1217.62" x2="474.39" y2="1217.62"/>
    <g>
      <path class="cls-2" d="m509.08,1172.12h4.75l-8.25,41.34h25.48l-.85,4.16h-30.23l9.1-45.5Z"/>
      <path class="cls-2" d="m541.06,1201.82c-.04.3-.07.76-.07,1.37,0,3.47.99,6.11,2.96,7.93,1.97,1.82,4.91,2.73,8.81,2.73,2.25,0,4.37-.38,6.34-1.14,1.97-.76,3.59-1.81,4.84-3.15l2.08,3.31c-1.6,1.6-3.61,2.85-6.01,3.74-2.4.89-4.95,1.33-7.64,1.33-4.94,0-8.83-1.3-11.67-3.9-2.84-2.6-4.26-6.15-4.26-10.66,0-3.81.81-7.26,2.44-10.33s3.88-5.49,6.76-7.25c2.88-1.75,6.12-2.63,9.72-2.63,4.55,0,8.17,1.29,10.85,3.87,2.69,2.58,4.03,6.12,4.03,10.63,0,1.26-.15,2.64-.45,4.16h-28.73Zm5.4-11.7c-2.43,2.04-4.07,4.79-4.94,8.25h24.38c.04-.3.07-.71.07-1.23,0-3.21-.98-5.69-2.93-7.44-1.95-1.75-4.55-2.63-7.8-2.63-3.42,0-6.35,1.02-8.77,3.05Zm17.42-11.89l-5.72-3.83-6.82,3.83h-4.55l9.29-6.11h4.55l7.6,6.11h-4.35Zm-2.63-8.71c-.71-.35-1.48-.84-2.31-1.5-.69-.52-1.26-.9-1.69-1.14-.43-.24-.91-.36-1.43-.36-1,0-1.82.29-2.47.88s-1.08,1.38-1.3,2.37h-2.79c.3-1.86,1.05-3.33,2.24-4.39,1.19-1.06,2.63-1.59,4.32-1.59.91,0,1.72.17,2.44.52.71.35,1.48.84,2.31,1.5.65.52,1.21.9,1.69,1.14.48.24.97.36,1.49.36,1,0,1.83-.28,2.5-.84.67-.56,1.11-1.34,1.33-2.34h2.73c-.35,1.82-1.1,3.26-2.24,4.32-1.15,1.06-2.59,1.59-4.32,1.59-.95,0-1.79-.17-2.5-.52Z"/>
      <path class="cls-2" d="m600.15,1216.16c-2.38-1.19-4.21-2.88-5.49-5.07-1.28-2.19-1.92-4.73-1.92-7.64,0-3.86.85-7.32,2.54-10.4s4.05-5.49,7.08-7.25c3.03-1.75,6.46-2.63,10.27-2.63,3.16,0,5.88.58,8.16,1.72,2.28,1.15,4.04,2.85,5.3,5.1l-3.9,2.28c-1.95-3.38-5.26-5.07-9.94-5.07-2.82,0-5.36.69-7.64,2.08-2.27,1.39-4.05,3.29-5.33,5.72-1.28,2.43-1.92,5.18-1.92,8.25,0,3.34.98,5.94,2.96,7.8,1.97,1.86,4.78,2.79,8.42,2.79,2.21,0,4.26-.42,6.14-1.27,1.89-.84,3.43-2.07,4.65-3.67l3.32,2.54c-1.52,2.04-3.54,3.63-6.08,4.78-2.54,1.15-5.28,1.72-8.22,1.72-3.21,0-6-.59-8.38-1.79Z"/>
      <path class="cls-2" d="m667.29,1183.43l-6.82,34.19h-4.42l1.1-5.46c-3.21,3.86-7.6,5.79-13.19,5.79-3.81,0-6.79-.99-8.94-2.96s-3.22-4.71-3.22-8.22c0-1.21.13-2.49.39-3.83l3.9-19.5h4.61l-3.9,19.5c-.22,1.21-.33,2.23-.33,3.05,0,2.51.73,4.44,2.18,5.79,1.45,1.34,3.63,2.01,6.53,2.01,3.64,0,6.65-1.02,9.04-3.05,2.38-2.04,3.99-5,4.81-8.91l3.64-18.39h4.61Zm-3.31-.07h.98c1.43,0,2.5-.4,3.22-1.2.72-.8,1.07-1.85,1.07-3.15,0-1.56-.43-2.95-1.3-4.16l3.06-1.17c1.13,1.65,1.69,3.47,1.69,5.46,0,2.34-.67,4.22-2.02,5.65-1.34,1.43-3.25,2.15-5.72,2.15h-.98v-3.58Z"/>
      <path class="cls-2" d="m708.53,1184.7c-1.41,1.36-3.33,2.09-5.75,2.18,3.12,2.51,4.68,6.09,4.68,10.73,0,3.86-.84,7.33-2.53,10.43-1.69,3.1-4.04,5.52-7.05,7.28-3.01,1.75-6.4,2.63-10.17,2.63-3.12,0-5.85-.59-8.19-1.79-2.34-1.19-4.15-2.88-5.43-5.07-1.28-2.19-1.92-4.73-1.92-7.64,0-3.86.85-7.32,2.54-10.4s4.04-5.49,7.05-7.25c3.01-1.75,6.4-2.63,10.17-2.63,2.04,0,4.18.09,6.43.26,1.73.09,3.03.13,3.9.13,1.52,0,2.73-.4,3.64-1.2.91-.8,1.37-1.92,1.37-3.35,0-1.34-.43-2.73-1.3-4.16l2.99-1.17c1.13,1.6,1.69,3.42,1.69,5.46,0,2.34-.7,4.19-2.11,5.56Zm-12.9,27.1c2.25-1.37,4.02-3.27,5.3-5.72,1.28-2.45,1.92-5.19,1.92-8.22,0-3.34-.99-5.95-2.96-7.83-1.97-1.89-4.73-2.83-8.29-2.83-2.82,0-5.35.69-7.6,2.08-2.25,1.39-4.02,3.3-5.3,5.75-1.28,2.45-1.92,5.19-1.92,8.22,0,3.34.98,5.94,2.96,7.8,1.97,1.86,4.73,2.79,8.29,2.79,2.82,0,5.35-.68,7.6-2.05Zm4.03-41.76h6.3l-11.38,8.06h-4.81l9.88-8.06Z"/>
      <path class="cls-2" d="m720.01,1183.43h4.62l-6.76,34.19h-4.61l6.76-34.19Zm2.05-8.39c-.58-.61-.88-1.32-.88-2.14,0-1,.34-1.83,1.01-2.5.67-.67,1.53-1.01,2.57-1.01.91,0,1.67.29,2.27.88.61.58.91,1.27.91,2.05,0,1.04-.35,1.91-1.04,2.6-.69.69-1.56,1.04-2.6,1.04-.91,0-1.66-.3-2.24-.91Z"/>
      <path class="cls-2" d="m506.42,1279.28c-.17,1.04-.26,1.75-.26,2.15,0,3.03,1.65,4.55,4.94,4.55,1.95,0,3.71-.58,5.27-1.75l1.1,3.51c-1.95,1.47-4.49,2.21-7.6,2.21-2.56,0-4.58-.69-6.08-2.08-1.5-1.39-2.24-3.29-2.24-5.72,0-.95.09-1.84.26-2.67l3.96-20.15h-6.04l.71-3.9h6.11l1.49-7.48h4.62l-1.5,7.48h10.4l-.78,3.9h-10.4l-3.97,19.96Z"/>
      <path class="cls-2" d="m531.18,1288.16c-2.34-1.19-4.15-2.88-5.43-5.07-1.28-2.19-1.92-4.73-1.92-7.64,0-3.86.85-7.32,2.54-10.4s4.04-5.49,7.05-7.25c3.01-1.75,6.4-2.63,10.17-2.63,4.77,0,8.55,1.3,11.34,3.9s4.19,6.11,4.19,10.53c0,3.86-.84,7.33-2.53,10.43-1.69,3.1-4.04,5.52-7.05,7.28-3.01,1.75-6.4,2.63-10.17,2.63-3.12,0-5.85-.59-8.19-1.79Zm16.12-4.36c2.25-1.37,4.02-3.27,5.3-5.72,1.28-2.45,1.92-5.19,1.92-8.22,0-3.34-.99-5.95-2.96-7.83-1.97-1.89-4.73-2.83-8.29-2.83-2.82,0-5.35.69-7.6,2.08-2.25,1.39-4.02,3.3-5.3,5.75-1.28,2.45-1.92,5.19-1.92,8.22,0,3.34.98,5.94,2.96,7.8,1.97,1.86,4.73,2.79,8.29,2.79,2.82,0,5.35-.68,7.6-2.05Zm4.94-33.7l-5.72-3.83-6.83,3.83h-4.55l9.29-6.11h4.55l7.61,6.11h-4.36Zm1.3-5.98c2.08-.87,3.12-2.04,3.12-3.51,0-.56-.2-1.02-.58-1.37-.39-.35-.93-.52-1.62-.52-1.04,0-2.04.26-2.99.78l-.71-2.01c1.34-.74,2.75-1.1,4.23-1.1,1.3,0,2.34.35,3.12,1.04.78.69,1.17,1.6,1.17,2.73,0,1.21-.39,2.3-1.17,3.25-.78.95-1.88,1.73-3.31,2.34l-1.23-1.62Z"/>
      <path class="cls-2" d="m589.03,1288.16c-2.38-1.19-4.21-2.88-5.49-5.07-1.28-2.19-1.92-4.73-1.92-7.64,0-3.86.85-7.32,2.54-10.4s4.05-5.49,7.08-7.25c3.03-1.75,6.46-2.63,10.27-2.63,3.16,0,5.88.58,8.16,1.72,2.28,1.15,4.04,2.85,5.3,5.1l-3.9,2.28c-1.95-3.38-5.26-5.07-9.94-5.07-2.82,0-5.36.69-7.64,2.08-2.27,1.39-4.05,3.29-5.33,5.72-1.28,2.43-1.92,5.18-1.92,8.25,0,3.34.98,5.94,2.96,7.8,1.97,1.86,4.78,2.79,8.42,2.79,2.21,0,4.26-.42,6.14-1.27,1.89-.84,3.43-2.07,4.65-3.67l3.32,2.54c-1.52,2.04-3.54,3.63-6.08,4.78-2.54,1.15-5.28,1.72-8.22,1.72-3.21,0-6-.59-8.38-1.79Z"/>
      <path class="cls-2" d="m650.49,1258.13c2.15,1.97,3.22,4.69,3.22,8.16,0,1.21-.13,2.51-.39,3.9l-3.9,19.43h-4.62l3.9-19.5c.22-1.21.33-2.25.33-3.12,0-2.47-.75-4.37-2.24-5.69-1.5-1.32-3.69-1.98-6.6-1.98-3.68,0-6.72,1.01-9.1,3.02-2.38,2.02-3.99,5-4.81,8.94l-3.64,18.33h-4.61l9.62-48.23h4.62l-3.83,19.17c3.16-3.6,7.52-5.4,13.06-5.4,3.86,0,6.86.99,9,2.96Z"/>
      <path class="cls-2" d="m699.66,1255.43l-6.82,34.19h-4.42l1.1-5.46c-3.21,3.86-7.6,5.79-13.19,5.79-3.81,0-6.79-.99-8.94-2.96s-3.22-4.71-3.22-8.22c0-1.21.13-2.49.39-3.83l3.9-19.5h4.61l-3.9,19.5c-.22,1.21-.33,2.23-.33,3.05,0,2.51.73,4.44,2.18,5.79,1.45,1.34,3.63,2.01,6.53,2.01,3.64,0,6.65-1.02,9.04-3.05,2.38-2.04,3.99-5,4.81-8.91l3.64-18.39h4.61Zm-9.04-13.39h6.31l-11.38,8.06h-4.81l9.88-8.06Zm5.72,13.33h.98c1.43,0,2.5-.4,3.22-1.2.72-.8,1.07-1.85,1.07-3.15,0-1.56-.43-2.95-1.3-4.16l3.06-1.17c1.13,1.65,1.69,3.47,1.69,5.46,0,2.34-.67,4.22-2.02,5.65-1.34,1.43-3.25,2.15-5.72,2.15h-.98v-3.58Z"/>
      <path class="cls-2" d="m711.95,1288.16c-2.38-1.19-4.21-2.88-5.49-5.07-1.28-2.19-1.92-4.73-1.92-7.64,0-3.86.85-7.32,2.54-10.4s4.05-5.49,7.08-7.25c3.03-1.75,6.46-2.63,10.27-2.63,3.16,0,5.88.58,8.16,1.72,2.28,1.15,4.04,2.85,5.3,5.1l-3.9,2.28c-1.95-3.38-5.26-5.07-9.94-5.07-2.82,0-5.36.69-7.64,2.08-2.27,1.39-4.05,3.29-5.33,5.72-1.28,2.43-1.92,5.18-1.92,8.25,0,3.34.98,5.94,2.96,7.8,1.97,1.86,4.78,2.79,8.42,2.79,2.21,0,4.26-.42,6.14-1.27,1.89-.84,3.43-2.07,4.65-3.67l3.32,2.54c-1.52,2.04-3.54,3.63-6.08,4.78-2.54,1.15-5.28,1.72-8.22,1.72-3.21,0-6-.59-8.38-1.79Z"/>
      <path class="cls-2" d="m506.42,1351.28c-.17,1.04-.26,1.75-.26,2.15,0,3.03,1.65,4.55,4.94,4.55,1.95,0,3.71-.58,5.27-1.75l1.1,3.51c-1.95,1.47-4.49,2.21-7.6,2.21-2.56,0-4.58-.69-6.08-2.08-1.5-1.39-2.24-3.29-2.24-5.72,0-.95.09-1.84.26-2.67l3.96-20.15h-6.04l.71-3.9h6.11l1.49-7.48h4.62l-1.5,7.48h10.4l-.78,3.9h-10.4l-3.97,19.96Z"/>
      <path class="cls-2" d="m562.19,1327.43l-6.83,34.19h-4.42l1.1-5.39c-1.65,1.82-3.6,3.23-5.85,4.22-2.25,1-4.74,1.5-7.47,1.5-2.9,0-5.48-.58-7.74-1.75-2.25-1.17-4.01-2.85-5.26-5.04-1.26-2.19-1.89-4.76-1.89-7.7,0-3.86.83-7.32,2.5-10.4,1.67-3.08,3.98-5.49,6.92-7.25,2.95-1.75,6.24-2.63,9.88-2.63,3.25,0,5.98.64,8.19,1.92,2.21,1.28,3.81,3.11,4.81,5.49l1.43-7.15h4.62Zm-14.89,28.37c2.25-1.37,4.02-3.27,5.3-5.72,1.28-2.45,1.92-5.19,1.92-8.22,0-3.34-.99-5.95-2.96-7.83-1.97-1.89-4.73-2.83-8.29-2.83-2.82,0-5.35.69-7.6,2.08-2.25,1.39-4.02,3.3-5.3,5.75-1.28,2.45-1.92,5.19-1.92,8.22,0,3.34.98,5.94,2.96,7.8,1.97,1.86,4.73,2.79,8.29,2.79,2.82,0,5.35-.68,7.6-2.05Zm-12.19,17.49c-.45-.46-.68-1.05-.68-1.79,0-.87.31-1.6.94-2.21.63-.61,1.38-.91,2.24-.91.69,0,1.27.23,1.72.68s.68,1.03.68,1.72c0,.91-.3,1.67-.91,2.28-.61.61-1.36.91-2.27.91-.69,0-1.27-.23-1.72-.68Z"/>
      <path class="cls-2" d="m574.99,1327.43h4.62l-6.76,34.19h-4.61l6.76-34.19Zm2.05-8.39c-.58-.61-.88-1.32-.88-2.14,0-1,.34-1.83,1.01-2.5.67-.67,1.53-1.01,2.57-1.01.91,0,1.67.29,2.27.88.61.58.91,1.27.91,2.05,0,1.04-.35,1.91-1.04,2.6-.69.69-1.56,1.04-2.6,1.04-.91,0-1.66-.3-2.24-.91Z"/>
      <path class="cls-2" d="m635.21,1330.13c2.15,1.97,3.22,4.69,3.22,8.16,0,1.21-.13,2.51-.39,3.9l-3.9,19.43h-4.62l3.9-19.5c.22-1.21.33-2.25.33-3.12,0-2.47-.75-4.37-2.24-5.69-1.5-1.32-3.69-1.98-6.6-1.98-3.68,0-6.72,1.01-9.1,3.02-2.38,2.02-3.99,5-4.81,8.94l-3.64,18.33h-4.61l6.76-34.19h4.42l-1.1,5.46c3.25-3.81,7.71-5.72,13.39-5.72,3.86,0,6.86.99,9,2.96Z"/>
      <path class="cls-2" d="m679.22,1330.13c2.15,1.97,3.22,4.69,3.22,8.16,0,1.21-.13,2.51-.39,3.9l-3.9,19.43h-4.62l3.9-19.5c.22-1.21.33-2.25.33-3.12,0-2.47-.75-4.37-2.24-5.69-1.5-1.32-3.69-1.98-6.6-1.98-3.68,0-6.72,1.01-9.1,3.02-2.38,2.02-3.99,5-4.81,8.94l-3.64,18.33h-4.61l9.62-48.23h4.62l-3.83,19.17c3.16-3.6,7.52-5.4,13.06-5.4,3.86,0,6.86.99,9,2.96Z"/>
      <path class="cls-2" d="m728.91,1327.43l-6.83,34.19h-4.42l1.1-5.39c-1.65,1.82-3.6,3.23-5.85,4.22-2.25,1-4.74,1.5-7.47,1.5-2.9,0-5.48-.58-7.74-1.75-2.25-1.17-4.01-2.85-5.26-5.04-1.26-2.19-1.89-4.76-1.89-7.7,0-3.86.83-7.32,2.5-10.4,1.67-3.08,3.98-5.49,6.92-7.25,2.95-1.75,6.24-2.63,9.88-2.63,3.25,0,5.98.64,8.19,1.92,2.21,1.28,3.81,3.11,4.81,5.49l1.43-7.15h4.62Zm-14.89,28.37c2.25-1.37,4.02-3.27,5.3-5.72,1.28-2.45,1.92-5.19,1.92-8.22,0-3.34-.99-5.95-2.96-7.83-1.97-1.89-4.73-2.83-8.29-2.83-2.82,0-5.35.69-7.6,2.08-2.25,1.39-4.02,3.3-5.3,5.75-1.28,2.45-1.92,5.19-1.92,8.22,0,3.34.98,5.94,2.96,7.8,1.97,1.86,4.73,2.79,8.29,2.79,2.82,0,5.35-.68,7.6-2.05Zm-9.62-41.76h6.11l7.41,8.06h-4.62l-8.9-8.06Z"/>
      <path class="cls-2" d="m790.46,1327.43l-5.98,30.03c-1.17,5.98-3.37,10.32-6.6,13.03-3.23,2.71-7.66,4.06-13.29,4.06-3.21,0-6.1-.45-8.68-1.33-2.58-.89-4.76-2.16-6.53-3.8l2.73-3.51c1.39,1.43,3.2,2.54,5.43,3.35,2.23.8,4.69,1.2,7.38,1.2,4.29,0,7.63-1,10.01-2.99,2.38-1.99,3.99-5.07,4.81-9.23l.78-3.77c-1.65,1.86-3.63,3.3-5.95,4.32-2.32,1.02-4.89,1.53-7.7,1.53-4.55,0-8.2-1.24-10.95-3.71-2.75-2.47-4.13-5.83-4.13-10.08,0-3.64.83-6.93,2.5-9.88,1.67-2.95,3.99-5.26,6.96-6.96,2.97-1.69,6.32-2.54,10.04-2.54,3.25,0,6.04.66,8.39,1.98,2.34,1.32,3.99,3.26,4.94,5.82l1.43-7.54h4.42Zm-15.05,26.84c2.28-1.3,4.05-3.1,5.33-5.4,1.28-2.3,1.92-4.88,1.92-7.73,0-3.12-1-5.56-2.99-7.31-1.99-1.75-4.77-2.63-8.32-2.63-2.86,0-5.42.65-7.67,1.95-2.25,1.3-4.02,3.1-5.3,5.39-1.28,2.3-1.92,4.88-1.92,7.74,0,3.12,1,5.56,2.99,7.31,1.99,1.75,4.77,2.63,8.32,2.63,2.82,0,5.36-.65,7.64-1.95Z"/>
      <path class="cls-2" d="m834.6,1327.43l-6.83,34.19h-4.42l1.1-5.39c-1.65,1.82-3.6,3.23-5.85,4.22-2.25,1-4.74,1.5-7.47,1.5-2.9,0-5.48-.58-7.74-1.75-2.25-1.17-4.01-2.85-5.26-5.04-1.26-2.19-1.89-4.76-1.89-7.7,0-3.86.83-7.32,2.5-10.4,1.67-3.08,3.98-5.49,6.92-7.25,2.95-1.75,6.24-2.63,9.88-2.63,3.25,0,5.98.64,8.19,1.92,2.21,1.28,3.81,3.11,4.81,5.49l1.43-7.15h4.62Zm-14.89,28.37c2.25-1.37,4.02-3.27,5.3-5.72,1.28-2.45,1.92-5.19,1.92-8.22,0-3.34-.99-5.95-2.96-7.83-1.97-1.89-4.73-2.83-8.29-2.83-2.82,0-5.35.69-7.6,2.08-2.25,1.39-4.02,3.3-5.3,5.75-1.28,2.45-1.92,5.19-1.92,8.22,0,3.34.98,5.94,2.96,7.8,1.97,1.86,4.73,2.79,8.29,2.79,2.82,0,5.35-.68,7.6-2.05Zm5.14-41.76h6.3l-11.38,8.06h-4.81l9.88-8.06Z"/>
      <path class="cls-2" d="m847.4,1327.43h4.62l-6.76,34.19h-4.61l6.76-34.19Zm2.05-8.39c-.58-.61-.88-1.32-.88-2.14,0-1,.34-1.83,1.01-2.5.67-.67,1.53-1.01,2.57-1.01.91,0,1.67.29,2.27.88.61.58.91,1.27.91,2.05,0,1.04-.35,1.91-1.04,2.6-.69.69-1.56,1.04-2.6,1.04-.91,0-1.66-.3-2.24-.91Z"/>
    </g>
    <g>
      <path class="cls-2" d="m181.46,1172.12l-9.1,45.5h-4.74l8.25-41.34h-10.73l.85-4.16h15.47Z"/>
      <path class="cls-2" d="m190.98,1213.65c-2.62-2.9-3.93-6.93-3.93-12.09s.93-10.08,2.79-14.66c1.86-4.57,4.53-8.24,8-11.02,3.47-2.77,7.45-4.16,11.96-4.16s8.27,1.45,10.89,4.35c2.62,2.9,3.93,6.93,3.93,12.09s-.93,10.09-2.79,14.66c-1.86,4.57-4.53,8.25-7.99,11.02-3.47,2.77-7.45,4.16-11.96,4.16s-8.27-1.45-10.89-4.36Zm20.64-3.74c2.69-2.54,4.73-5.77,6.14-9.72,1.41-3.94,2.11-7.93,2.11-11.96s-.92-6.96-2.76-9.07c-1.84-2.1-4.41-3.15-7.7-3.15-3.55,0-6.67,1.27-9.36,3.8-2.69,2.53-4.73,5.77-6.14,9.72-1.41,3.94-2.11,7.93-2.11,11.96s.92,6.97,2.76,9.07c1.84,2.1,4.41,3.15,7.7,3.15,3.55,0,6.67-1.27,9.36-3.8Z"/>
      <path class="cls-2" d="m227.87,1216.97c-.65-.65-.98-1.45-.98-2.41,0-1.04.36-1.92,1.07-2.63.71-.71,1.57-1.07,2.57-1.07s1.74.33,2.37.97c.63.65.94,1.45.94,2.41,0,1.04-.36,1.92-1.07,2.63-.72.71-1.55,1.07-2.5,1.07s-1.75-.33-2.4-.97Zm5.52-27.69c-.65-.65-.98-1.45-.98-2.41,0-1.04.36-1.92,1.07-2.63s1.57-1.07,2.57-1.07,1.74.33,2.37.98c.63.65.94,1.45.94,2.41,0,1.04-.36,1.92-1.07,2.63-.72.71-1.55,1.07-2.5,1.07s-1.76-.32-2.41-.97Z"/>
      <path class="cls-2" d="m247.24,1213.46h24.7l-.85,4.16h-31.98l.72-3.31,22.75-18.46c3.21-2.56,5.42-4.78,6.63-6.66,1.21-1.88,1.82-3.87,1.82-5.95,0-2.3-.81-4.09-2.44-5.39-1.62-1.3-4.08-1.95-7.38-1.95-2.38,0-4.67.46-6.86,1.36-2.19.91-4.08,2.19-5.69,3.84l-3.25-2.8c1.86-2.04,4.25-3.64,7.15-4.81,2.9-1.17,6-1.75,9.29-1.75,4.46,0,7.91.99,10.33,2.96,2.43,1.97,3.64,4.63,3.64,7.96,0,2.69-.74,5.26-2.21,7.74-1.47,2.47-4.07,5.2-7.8,8.19l-18.59,14.88Z"/>
      <path class="cls-2" d="m284.45,1213.65c-2.62-2.9-3.93-6.93-3.93-12.09s.93-10.08,2.79-14.66c1.86-4.57,4.53-8.24,8-11.02,3.47-2.77,7.45-4.16,11.96-4.16s8.27,1.45,10.89,4.35c2.62,2.9,3.93,6.93,3.93,12.09s-.93,10.09-2.79,14.66c-1.86,4.57-4.53,8.25-7.99,11.02-3.47,2.77-7.45,4.16-11.96,4.16s-8.27-1.45-10.89-4.36Zm20.64-3.74c2.69-2.54,4.73-5.77,6.14-9.72,1.41-3.94,2.11-7.93,2.11-11.96s-.92-6.96-2.76-9.07c-1.84-2.1-4.41-3.15-7.7-3.15-3.55,0-6.67,1.27-9.36,3.8-2.69,2.53-4.73,5.77-6.14,9.72-1.41,3.94-2.11,7.93-2.11,11.96s.92,6.97,2.76,9.07c1.84,2.1,4.41,3.15,7.7,3.15,3.55,0,6.67-1.27,9.36-3.8Z"/>
      <path class="cls-2" d="m88.67,1291.46h24.7l-.85,4.16h-31.98l.72-3.31,22.75-18.46c3.21-2.56,5.42-4.78,6.63-6.66,1.21-1.88,1.82-3.87,1.82-5.95,0-2.3-.81-4.09-2.44-5.39-1.62-1.3-4.08-1.95-7.38-1.95-2.38,0-4.67.46-6.86,1.36-2.19.91-4.08,2.19-5.69,3.84l-3.25-2.8c1.86-2.04,4.25-3.64,7.15-4.81,2.9-1.17,6-1.75,9.29-1.75,4.46,0,7.91.99,10.33,2.96,2.43,1.97,3.64,4.63,3.64,7.96,0,2.69-.74,5.26-2.21,7.74-1.47,2.47-4.07,5.2-7.8,8.19l-18.59,14.88Z"/>
      <path class="cls-2" d="m125.89,1291.65c-2.62-2.9-3.93-6.93-3.93-12.09s.93-10.08,2.79-14.66c1.86-4.57,4.53-8.24,8-11.02,3.47-2.77,7.45-4.16,11.96-4.16s8.27,1.45,10.89,4.35c2.62,2.9,3.93,6.93,3.93,12.09s-.93,10.09-2.79,14.66c-1.86,4.57-4.53,8.25-7.99,11.02-3.47,2.77-7.45,4.16-11.96,4.16s-8.27-1.45-10.89-4.36Zm20.64-3.74c2.69-2.54,4.73-5.77,6.14-9.72,1.41-3.94,2.11-7.93,2.11-11.96s-.92-6.96-2.76-9.07c-1.84-2.1-4.41-3.15-7.7-3.15-3.55,0-6.67,1.27-9.36,3.8-2.69,2.53-4.73,5.77-6.14,9.72-1.41,3.94-2.11,7.93-2.11,11.96s.92,6.97,2.76,9.07c1.84,2.1,4.41,3.15,7.7,3.15,3.55,0,6.67-1.27,9.36-3.8Z"/>
      <path class="cls-2" d="m186.95,1240.89h4.48l-33.54,61.23h-4.48l33.54-61.23Z"/>
      <path class="cls-2" d="m218.35,1253.43l-16.06,16.25c3.9.3,6.9,1.45,9,3.44,2.1,1.99,3.15,4.66,3.15,8,0,2.9-.78,5.48-2.34,7.74-1.56,2.25-3.75,4.01-6.56,5.26-2.82,1.26-6.07,1.89-9.75,1.89-3.47,0-6.56-.53-9.29-1.59-2.73-1.06-4.83-2.5-6.31-4.32l2.6-3.64c1.26,1.6,3.04,2.88,5.36,3.83,2.32.95,4.95,1.43,7.9,1.43,4.25,0,7.57-.93,9.98-2.79,2.4-1.86,3.61-4.38,3.61-7.54,0-5.24-3.66-7.87-10.99-7.87h-2.92l.71-3.45,15.6-15.79h-23.07l.84-4.16h29.19l-.65,3.32Z"/>
      <path class="cls-2" d="m245.39,1240.89h4.48l-33.54,61.23h-4.48l33.54-61.23Z"/>
      <path class="cls-2" d="m247.27,1291.46h24.7l-.85,4.16h-31.98l.72-3.31,22.75-18.46c3.21-2.56,5.42-4.78,6.63-6.66,1.21-1.88,1.82-3.87,1.82-5.95,0-2.3-.81-4.09-2.44-5.39-1.62-1.3-4.08-1.95-7.38-1.95-2.38,0-4.67.46-6.86,1.36-2.19.91-4.08,2.19-5.69,3.84l-3.25-2.8c1.86-2.04,4.25-3.64,7.15-4.81,2.9-1.17,6-1.75,9.29-1.75,4.46,0,7.91.99,10.33,2.96,2.43,1.97,3.64,4.63,3.64,7.96,0,2.69-.74,5.26-2.21,7.74-1.47,2.47-4.07,5.2-7.8,8.19l-18.59,14.88Z"/>
      <path class="cls-2" d="m284.49,1291.65c-2.62-2.9-3.93-6.93-3.93-12.09s.93-10.08,2.79-14.66c1.86-4.57,4.53-8.24,8-11.02,3.47-2.77,7.45-4.16,11.96-4.16s8.27,1.45,10.89,4.35c2.62,2.9,3.93,6.93,3.93,12.09s-.93,10.09-2.79,14.66c-1.86,4.57-4.53,8.25-7.99,11.02-3.47,2.77-7.45,4.16-11.96,4.16s-8.27-1.45-10.89-4.36Zm20.64-3.74c2.69-2.54,4.73-5.77,6.14-9.72,1.41-3.94,2.11-7.93,2.11-11.96s-.92-6.96-2.76-9.07c-1.84-2.1-4.41-3.15-7.7-3.15-3.55,0-6.67,1.27-9.36,3.8-2.69,2.53-4.73,5.77-6.14,9.72-1.41,3.94-2.11,7.93-2.11,11.96s.92,6.97,2.76,9.07c1.84,2.1,4.41,3.15,7.7,3.15,3.55,0,6.67-1.27,9.36-3.8Z"/>
      <path class="cls-2" d="m326.83,1291.46h24.7l-.85,4.16h-31.98l.72-3.31,22.75-18.46c3.21-2.56,5.42-4.78,6.63-6.66,1.21-1.88,1.82-3.87,1.82-5.95,0-2.3-.81-4.09-2.44-5.39-1.62-1.3-4.08-1.95-7.38-1.95-2.38,0-4.67.46-6.86,1.36-2.19.91-4.08,2.19-5.69,3.84l-3.25-2.8c1.86-2.04,4.25-3.64,7.15-4.81,2.9-1.17,6-1.75,9.29-1.75,4.46,0,7.91.99,10.33,2.96,2.43,1.97,3.64,4.63,3.64,7.96,0,2.69-.74,5.26-2.21,7.74-1.47,2.47-4.07,5.2-7.8,8.19l-18.59,14.88Z"/>
      <path class="cls-2" d="m396.12,1283.66h-9.17l-2.41,11.96h-4.68l2.4-11.96h-25.61l.65-3.38,29.77-30.16h5.52l-28.86,29.38h19.5l2.15-10.53h4.48l-2.08,10.53h9.1l-.78,4.16Z"/>
    </g>
  </g>
  <g>
    <line class="cls-1" x1="408.39" y1="488.54" x2="474.39" y2="488.54"/>
    <line class="cls-1" x1="408.39" y1="853.08" x2="474.39" y2="853.08"/>
    <g>
      <path class="cls-2" d="m538.66,468.39c1.26,1.56,1.88,3.57,1.88,6.04,0,4.55-1.72,8.04-5.17,10.46-3.44,2.43-8.2,3.64-14.27,3.64h-21.12l9.1-45.5h19.44c4.42,0,7.85.82,10.3,2.47,2.45,1.65,3.67,4.05,3.67,7.21s-.85,5.69-2.54,7.83-3.92,3.65-6.69,4.52c2.34.65,4.14,1.75,5.4,3.31Zm-6.56,13.58c2.47-1.73,3.71-4.23,3.71-7.48,0-2.51-.88-4.31-2.63-5.4-1.75-1.08-4.41-1.62-7.96-1.62h-16.25l-3.38,17.1h15.92c4.59,0,8.12-.87,10.6-2.6Zm-19.04-34.97l-3.32,16.51h14.5c4.03,0,7.26-.86,9.69-2.57,2.43-1.71,3.64-4.17,3.64-7.38,0-2.21-.86-3.86-2.57-4.94-1.71-1.08-4.17-1.62-7.38-1.62h-14.56Z"/>
      <path class="cls-2" d="m585.65,454.35l-6.82,34.19h-4.42l1.1-5.46c-3.21,3.86-7.6,5.79-13.19,5.79-3.81,0-6.79-.99-8.94-2.96-2.15-1.97-3.22-4.71-3.22-8.22,0-1.21.13-2.49.39-3.83l3.9-19.5h4.61l-3.9,19.5c-.22,1.21-.33,2.23-.33,3.06,0,2.51.73,4.44,2.18,5.78,1.45,1.34,3.63,2.02,6.53,2.02,3.64,0,6.65-1.02,9.04-3.06,2.38-2.04,3.99-5,4.81-8.9l3.64-18.4h4.61Zm-12.02-6.37c-.74-.43-1.54-1.04-2.41-1.82-.74-.65-1.36-1.14-1.88-1.46-.52-.33-1.08-.49-1.69-.49-.95,0-1.75.38-2.41,1.14-.65.76-1.08,1.77-1.3,3.02h-2.79c.35-2.25,1.1-4.01,2.27-5.27,1.17-1.26,2.6-1.88,4.29-1.88.95,0,1.79.21,2.5.62.71.41,1.55,1.03,2.5,1.85.69.65,1.29,1.14,1.79,1.46.5.33,1.05.49,1.66.49.95,0,1.77-.37,2.44-1.1.67-.74,1.11-1.71,1.33-2.93h2.79c-.35,2.21-1.1,3.93-2.24,5.17-1.15,1.24-2.59,1.85-4.32,1.85-.95,0-1.8-.22-2.54-.65Zm8.71,6.31h.98c1.43,0,2.5-.4,3.22-1.2.72-.8,1.07-1.85,1.07-3.15,0-1.56-.43-2.95-1.3-4.16l3.06-1.17c1.13,1.65,1.69,3.47,1.69,5.46,0,2.34-.67,4.23-2.02,5.65-1.34,1.43-3.25,2.15-5.72,2.15h-.98v-3.57Z"/>
      <path class="cls-2" d="m628.88,454.35l-6.83,34.19h-4.42l1.1-5.4c-1.65,1.82-3.6,3.23-5.85,4.23-2.25,1-4.74,1.5-7.47,1.5-2.9,0-5.48-.58-7.74-1.76-2.25-1.17-4.01-2.85-5.26-5.04-1.26-2.19-1.89-4.76-1.89-7.7,0-3.86.83-7.32,2.5-10.4,1.67-3.08,3.98-5.49,6.92-7.25,2.95-1.75,6.24-2.63,9.88-2.63,3.25,0,5.98.64,8.19,1.92,2.21,1.28,3.81,3.11,4.81,5.49l1.43-7.15h4.62Zm-14.89,28.37c2.25-1.37,4.02-3.27,5.3-5.72,1.28-2.45,1.92-5.19,1.92-8.22,0-3.34-.99-5.95-2.96-7.83-1.97-1.89-4.73-2.83-8.29-2.83-2.82,0-5.35.69-7.6,2.08-2.25,1.39-4.02,3.3-5.3,5.75-1.28,2.45-1.92,5.19-1.92,8.22,0,3.34.98,5.94,2.96,7.8,1.97,1.86,4.73,2.79,8.29,2.79,2.82,0,5.35-.68,7.6-2.05Z"/>
      <path class="cls-2" d="m659.04,487.08c-2.38-1.19-4.21-2.88-5.49-5.07-1.28-2.19-1.92-4.73-1.92-7.64,0-3.86.85-7.32,2.54-10.4,1.69-3.08,4.05-5.49,7.08-7.25,3.03-1.75,6.46-2.63,10.27-2.63,3.16,0,5.88.58,8.16,1.72,2.28,1.15,4.04,2.85,5.3,5.1l-3.9,2.27c-1.95-3.38-5.26-5.07-9.94-5.07-2.82,0-5.36.69-7.64,2.08-2.27,1.39-4.05,3.29-5.33,5.72-1.28,2.43-1.92,5.18-1.92,8.25,0,3.34.98,5.94,2.96,7.8,1.97,1.86,4.78,2.79,8.42,2.79,2.21,0,4.26-.42,6.14-1.27,1.89-.84,3.43-2.07,4.65-3.67l3.32,2.54c-1.52,2.04-3.54,3.63-6.08,4.78-2.54,1.15-5.28,1.72-8.22,1.72-3.21,0-6-.6-8.38-1.79Z"/>
      <path class="cls-2" d="m724.01,455.62c-1.41,1.36-3.33,2.09-5.75,2.18,3.12,2.51,4.68,6.09,4.68,10.73,0,3.86-.84,7.33-2.53,10.43-1.69,3.1-4.04,5.52-7.05,7.28-3.01,1.75-6.4,2.63-10.17,2.63-3.12,0-5.85-.6-8.19-1.79-2.34-1.19-4.15-2.88-5.43-5.07-1.28-2.19-1.92-4.73-1.92-7.64,0-3.86.85-7.32,2.54-10.4,1.69-3.08,4.04-5.49,7.05-7.25,3.01-1.75,6.4-2.63,10.17-2.63,2.04,0,4.18.09,6.43.26,1.73.09,3.03.13,3.9.13,1.52,0,2.73-.4,3.64-1.2.91-.8,1.37-1.92,1.37-3.35,0-1.34-.43-2.73-1.3-4.16l2.99-1.17c1.13,1.6,1.69,3.42,1.69,5.46,0,2.34-.7,4.19-2.11,5.56Zm-12.9,27.1c2.25-1.37,4.02-3.27,5.3-5.72,1.28-2.45,1.92-5.19,1.92-8.22,0-3.34-.99-5.95-2.96-7.83-1.97-1.89-4.73-2.83-8.29-2.83-2.82,0-5.35.69-7.6,2.08-2.25,1.39-4.02,3.3-5.3,5.75-1.28,2.45-1.92,5.19-1.92,8.22,0,3.34.98,5.94,2.96,7.8,1.97,1.86,4.73,2.79,8.29,2.79,2.82,0,5.35-.68,7.6-2.05Z"/>
      <path class="cls-2" d="m786.27,456.98c2.1,1.93,3.15,4.63,3.15,8.09,0,1-.15,2.34-.46,4.03l-3.9,19.44h-4.62l3.9-19.5c.22-1,.33-2.06.33-3.19,0-2.43-.71-4.3-2.15-5.62-1.43-1.32-3.53-1.98-6.31-1.98-3.47,0-6.35.96-8.65,2.89-2.3,1.93-3.83,4.78-4.61,8.55l-3.77,18.85h-4.62l3.9-19.5c.22-1.21.32-2.25.32-3.12,0-2.47-.7-4.37-2.11-5.69-1.41-1.32-3.52-1.98-6.34-1.98-3.51,0-6.41,1.01-8.71,3.02-2.3,2.02-3.86,5-4.68,8.94l-3.64,18.33h-4.61l6.76-34.19h4.42l-1.1,5.46c3.12-3.81,7.43-5.72,12.94-5.72,2.86,0,5.25.58,7.18,1.76,1.93,1.17,3.26,2.86,4,5.07,1.69-2.25,3.76-3.95,6.21-5.1,2.45-1.15,5.19-1.72,8.22-1.72,3.86,0,6.84.96,8.94,2.89Z"/>
      <path class="cls-2" d="m506.42,579.2c-.17,1.04-.26,1.75-.26,2.15,0,3.03,1.65,4.55,4.94,4.55,1.95,0,3.71-.58,5.27-1.75l1.1,3.51c-1.95,1.47-4.49,2.21-7.6,2.21-2.56,0-4.58-.69-6.08-2.08-1.5-1.39-2.24-3.29-2.24-5.72,0-.95.09-1.84.26-2.67l3.96-20.15h-6.04l.71-3.9h6.11l1.49-7.48h4.62l-1.5,7.48h10.4l-.78,3.9h-10.4l-3.97,19.96Z"/>
      <path class="cls-2" d="m557.87,558.05c2.15,1.97,3.22,4.69,3.22,8.16,0,1.21-.13,2.51-.39,3.9l-3.9,19.44h-4.62l3.9-19.5c.22-1.21.33-2.25.33-3.12,0-2.47-.75-4.37-2.24-5.69-1.5-1.32-3.69-1.98-6.6-1.98-3.68,0-6.72,1.01-9.1,3.02-2.38,2.02-3.99,5-4.81,8.94l-3.64,18.33h-4.61l9.62-48.23h4.62l-3.83,19.17c3.16-3.6,7.52-5.4,13.06-5.4,3.86,0,6.86.99,9,2.96Z"/>
      <path class="cls-2" d="m607.56,555.35l-6.83,34.19h-4.42l1.1-5.4c-1.65,1.82-3.6,3.23-5.85,4.23-2.25,1-4.74,1.5-7.47,1.5-2.9,0-5.48-.58-7.74-1.76-2.25-1.17-4.01-2.85-5.26-5.04-1.26-2.19-1.89-4.76-1.89-7.7,0-3.86.83-7.32,2.5-10.4,1.67-3.08,3.98-5.49,6.92-7.25,2.95-1.75,6.24-2.63,9.88-2.63,3.25,0,5.98.64,8.19,1.92,2.21,1.28,3.81,3.11,4.81,5.49l1.43-7.15h4.62Zm-14.89,28.37c2.25-1.37,4.02-3.27,5.3-5.72,1.28-2.45,1.92-5.19,1.92-8.22,0-3.34-.99-5.95-2.96-7.83-1.97-1.89-4.73-2.83-8.29-2.83-2.82,0-5.35.69-7.6,2.08-2.25,1.39-4.02,3.3-5.3,5.75-1.28,2.45-1.92,5.19-1.92,8.22,0,3.34.98,5.94,2.96,7.8,1.97,1.86,4.73,2.79,8.29,2.79,2.82,0,5.35-.68,7.6-2.05Zm6.24-33.7l-5.85-5.4-7.02,5.4h-4.42l9.29-8.06h4.68l7.48,8.06h-4.16Z"/>
      <path class="cls-2" d="m646.07,558.05c2.15,1.97,3.22,4.69,3.22,8.16,0,1.21-.13,2.51-.39,3.9l-3.9,19.44h-4.62l3.9-19.5c.22-1.21.33-2.25.33-3.12,0-2.47-.75-4.37-2.24-5.69-1.5-1.32-3.69-1.98-6.6-1.98-3.68,0-6.72,1.01-9.1,3.02-2.38,2.02-3.99,5-4.81,8.94l-3.64,18.33h-4.61l6.76-34.19h4.42l-1.1,5.46c3.25-3.81,7.71-5.72,13.39-5.72,3.86,0,6.86.99,9,2.96Z"/>
      <path class="cls-2" d="m732.19,557.98c2.1,1.93,3.15,4.63,3.15,8.09,0,1-.15,2.34-.46,4.03l-3.9,19.44h-4.62l3.9-19.5c.22-1,.33-2.06.33-3.19,0-2.43-.71-4.3-2.15-5.62-1.43-1.32-3.53-1.98-6.31-1.98-3.47,0-6.35.96-8.65,2.89-2.3,1.93-3.83,4.78-4.61,8.55l-3.77,18.85h-4.62l3.9-19.5c.22-1.21.32-2.25.32-3.12,0-2.47-.7-4.37-2.11-5.69-1.41-1.32-3.52-1.98-6.34-1.98-3.51,0-6.41,1.01-8.71,3.02-2.3,2.02-3.86,5-4.68,8.94l-3.64,18.33h-4.61l6.76-34.19h4.42l-1.1,5.46c3.12-3.81,7.43-5.72,12.94-5.72,2.86,0,5.25.58,7.18,1.76,1.93,1.17,3.26,2.86,4,5.07,1.69-2.25,3.76-3.95,6.21-5.1,2.45-1.15,5.19-1.72,8.22-1.72,3.86,0,6.84.96,8.94,2.89Z"/>
      <path class="cls-2" d="m781.75,555.35l-6.83,34.19h-4.42l1.1-5.4c-1.65,1.82-3.6,3.23-5.85,4.23-2.25,1-4.74,1.5-7.47,1.5-2.9,0-5.48-.58-7.74-1.76-2.25-1.17-4.01-2.85-5.26-5.04-1.26-2.19-1.89-4.76-1.89-7.7,0-3.86.83-7.32,2.5-10.4,1.67-3.08,3.98-5.49,6.92-7.25,2.95-1.75,6.24-2.63,9.88-2.63,3.25,0,5.98.64,8.19,1.92,2.21,1.28,3.81,3.11,4.81,5.49l1.43-7.15h4.62Zm-14.89,28.37c2.25-1.37,4.02-3.27,5.3-5.72,1.28-2.45,1.92-5.19,1.92-8.22,0-3.34-.99-5.95-2.96-7.83-1.97-1.89-4.73-2.83-8.29-2.83-2.82,0-5.35.69-7.6,2.08-2.25,1.39-4.02,3.3-5.3,5.75-1.28,2.45-1.92,5.19-1.92,8.22,0,3.34.98,5.94,2.96,7.8,1.97,1.86,4.73,2.79,8.29,2.79,2.82,0,5.35-.68,7.6-2.05Zm-12.19,17.48c-.45-.46-.68-1.05-.68-1.79,0-.87.31-1.6.94-2.21.63-.61,1.38-.91,2.24-.91.69,0,1.27.23,1.72.68s.68,1.03.68,1.72c0,.91-.3,1.67-.91,2.27-.61.61-1.36.91-2.27.91-.69,0-1.27-.23-1.72-.68Zm18.43-51.19l-5.85-5.4-7.02,5.4h-4.42l9.29-8.06h4.68l7.48,8.06h-4.16Z"/>
      <path class="cls-2" d="m795.21,579.2c-.17,1.04-.26,1.75-.26,2.15,0,3.03,1.65,4.55,4.94,4.55,1.95,0,3.71-.58,5.27-1.75l1.1,3.51c-1.95,1.47-4.49,2.21-7.6,2.21-2.56,0-4.58-.69-6.08-2.08-1.5-1.39-2.24-3.29-2.24-5.72,0-.95.09-1.84.26-2.67l3.96-20.15h-6.04l.71-3.9h6.11l1.49-7.48h4.62l-1.5,7.48h10.4l-.78,3.9h-10.4l-3.97,19.96Z"/>
      <path class="cls-2" d="m506.42,680.2c-.17,1.04-.26,1.75-.26,2.15,0,3.03,1.65,4.55,4.94,4.55,1.95,0,3.71-.58,5.27-1.75l1.1,3.51c-1.95,1.47-4.49,2.21-7.6,2.21-2.56,0-4.58-.69-6.08-2.08-1.5-1.39-2.24-3.29-2.24-5.72,0-.95.09-1.84.26-2.67l3.96-20.15h-6.04l.71-3.9h6.11l1.49-7.48h4.62l-1.5,7.48h10.4l-.78,3.9h-10.4l-3.97,19.96Z"/>
      <path class="cls-2" d="m562.19,656.35l-6.83,34.19h-4.42l1.1-5.4c-1.65,1.82-3.6,3.23-5.85,4.23-2.25,1-4.74,1.5-7.47,1.5-2.9,0-5.48-.58-7.74-1.76-2.25-1.17-4.01-2.85-5.26-5.04-1.26-2.19-1.89-4.76-1.89-7.7,0-3.86.83-7.32,2.5-10.4,1.67-3.08,3.98-5.49,6.92-7.25,2.95-1.75,6.24-2.63,9.88-2.63,3.25,0,5.98.64,8.19,1.92,2.21,1.28,3.81,3.11,4.81,5.49l1.43-7.15h4.62Zm-14.89,28.37c2.25-1.37,4.02-3.27,5.3-5.72,1.28-2.45,1.92-5.19,1.92-8.22,0-3.34-.99-5.95-2.96-7.83-1.97-1.89-4.73-2.83-8.29-2.83-2.82,0-5.35.69-7.6,2.08-2.25,1.39-4.02,3.3-5.3,5.75-1.28,2.45-1.92,5.19-1.92,8.22,0,3.34.98,5.94,2.96,7.8,1.97,1.86,4.73,2.79,8.29,2.79,2.82,0,5.35-.68,7.6-2.05Zm-12.19,17.48c-.45-.46-.68-1.05-.68-1.79,0-.87.31-1.6.94-2.21.63-.61,1.38-.91,2.24-.91.69,0,1.27.23,1.72.68s.68,1.03.68,1.72c0,.91-.3,1.67-.91,2.27-.61.61-1.36.91-2.27.91-.69,0-1.27-.23-1.72-.68Z"/>
      <path class="cls-2" d="m574.99,656.35h4.62l-6.76,34.19h-4.61l6.76-34.19Zm2.05-8.39c-.58-.61-.88-1.32-.88-2.15,0-1,.34-1.83,1.01-2.5s1.53-1.01,2.57-1.01c.91,0,1.67.29,2.27.88.61.58.91,1.27.91,2.05,0,1.04-.35,1.91-1.04,2.6s-1.56,1.04-2.6,1.04c-.91,0-1.66-.3-2.24-.91Z"/>
      <path class="cls-2" d="m610.16,680.2c-.17,1.04-.26,1.75-.26,2.15,0,3.03,1.65,4.55,4.94,4.55,1.95,0,3.71-.58,5.27-1.75l1.1,3.51c-1.95,1.47-4.49,2.21-7.6,2.21-2.56,0-4.58-.69-6.08-2.08-1.5-1.39-2.24-3.29-2.24-5.72,0-.95.09-1.84.26-2.67l3.96-20.15h-6.04l.71-3.9h6.11l1.49-7.48h4.62l-1.5,7.48h10.4l-.78,3.9h-10.4l-3.97,19.96Z"/>
      <path class="cls-2" d="m666.77,656.35l-6.82,34.19h-4.42l1.1-5.46c-3.21,3.86-7.6,5.79-13.19,5.79-3.81,0-6.79-.99-8.94-2.96-2.15-1.97-3.22-4.71-3.22-8.22,0-1.21.13-2.49.39-3.83l3.9-19.5h4.61l-3.9,19.5c-.22,1.21-.33,2.23-.33,3.06,0,2.51.73,4.44,2.18,5.78,1.45,1.34,3.63,2.02,6.53,2.02,3.64,0,6.65-1.02,9.04-3.06,2.38-2.04,3.99-5,4.81-8.9l3.64-18.4h4.61Zm-3.31-.06h.98c1.43,0,2.5-.4,3.22-1.2.72-.8,1.07-1.85,1.07-3.15,0-1.56-.43-2.95-1.3-4.16l3.06-1.17c1.13,1.65,1.69,3.47,1.69,5.46,0,2.34-.67,4.23-2.02,5.65-1.34,1.43-3.25,2.15-5.72,2.15h-.98v-3.57Z"/>
      <path class="cls-2" d="m728.78,656.35l-5.98,30.03c-1.17,5.98-3.37,10.32-6.6,13.03-3.23,2.71-7.66,4.06-13.29,4.06-3.21,0-6.1-.44-8.68-1.33-2.58-.89-4.76-2.16-6.53-3.8l2.73-3.51c1.39,1.43,3.2,2.54,5.43,3.35,2.23.8,4.69,1.2,7.38,1.2,4.29,0,7.63-1,10.01-2.99,2.38-1.99,3.99-5.07,4.81-9.23l.78-3.77c-1.65,1.86-3.63,3.3-5.95,4.32-2.32,1.02-4.89,1.53-7.7,1.53-4.55,0-8.2-1.24-10.95-3.71-2.75-2.47-4.13-5.83-4.13-10.08,0-3.64.83-6.93,2.5-9.88,1.67-2.95,3.99-5.27,6.96-6.96,2.97-1.69,6.32-2.54,10.04-2.54,3.25,0,6.04.66,8.39,1.98,2.34,1.32,3.99,3.26,4.94,5.82l1.43-7.54h4.42Zm-15.05,26.84c2.28-1.3,4.05-3.1,5.33-5.4,1.28-2.3,1.92-4.88,1.92-7.73,0-3.12-1-5.56-2.99-7.31-1.99-1.75-4.77-2.63-8.32-2.63-2.86,0-5.42.65-7.67,1.95-2.25,1.3-4.02,3.1-5.3,5.4-1.28,2.3-1.92,4.88-1.92,7.74,0,3.12,1,5.56,2.99,7.31,1.99,1.75,4.77,2.63,8.32,2.63,2.82,0,5.36-.65,7.64-1.95Z"/>
      <path class="cls-2" d="m741.65,656.35h4.62l-6.76,34.19h-4.61l6.76-34.19Zm2.05-8.39c-.58-.61-.88-1.32-.88-2.15,0-1,.34-1.83,1.01-2.5s1.53-1.01,2.57-1.01c.91,0,1.67.29,2.27.88.61.58.91,1.27.91,2.05,0,1.04-.35,1.91-1.04,2.6s-1.56,1.04-2.6,1.04c-.91,0-1.66-.3-2.24-.91Z"/>
      <path class="cls-2" d="m790.4,656.35l-6.83,34.19h-4.42l1.1-5.4c-1.65,1.82-3.6,3.23-5.85,4.23-2.25,1-4.74,1.5-7.47,1.5-2.9,0-5.48-.58-7.74-1.76-2.25-1.17-4.01-2.85-5.26-5.04-1.26-2.19-1.89-4.76-1.89-7.7,0-3.86.83-7.32,2.5-10.4,1.67-3.08,3.98-5.49,6.92-7.25,2.95-1.75,6.24-2.63,9.88-2.63,3.25,0,5.98.64,8.19,1.92,2.21,1.28,3.81,3.11,4.81,5.49l1.43-7.15h4.62Zm-14.89,28.37c2.25-1.37,4.02-3.27,5.3-5.72,1.28-2.45,1.92-5.19,1.92-8.22,0-3.34-.99-5.95-2.96-7.83-1.97-1.89-4.73-2.83-8.29-2.83-2.82,0-5.35.69-7.6,2.08-2.25,1.39-4.02,3.3-5.3,5.75-1.28,2.45-1.92,5.19-1.92,8.22,0,3.34.98,5.94,2.96,7.8,1.97,1.86,4.73,2.79,8.29,2.79,2.82,0,5.35-.68,7.6-2.05Z"/>
      <path class="cls-2" d="m531.48,760.05c2.15,1.97,3.22,4.69,3.22,8.16,0,1.21-.13,2.51-.39,3.9l-3.9,19.44h-4.62l3.9-19.5c.22-1.21.33-2.25.33-3.12,0-2.47-.75-4.37-2.24-5.69-1.5-1.32-3.69-1.98-6.6-1.98-3.68,0-6.72,1.01-9.1,3.02-2.38,2.02-3.99,5-4.81,8.94l-3.64,18.33h-4.61l6.76-34.19h4.42l-1.1,5.46c3.25-3.81,7.71-5.72,13.39-5.72,3.86,0,6.86.99,9,2.96Z"/>
      <path class="cls-2" d="m575.48,760.05c2.15,1.97,3.22,4.69,3.22,8.16,0,1.21-.13,2.51-.39,3.9l-3.9,19.44h-4.62l3.9-19.5c.22-1.21.33-2.25.33-3.12,0-2.47-.75-4.37-2.24-5.69-1.5-1.32-3.69-1.98-6.6-1.98-3.68,0-6.72,1.01-9.1,3.02-2.38,2.02-3.99,5-4.81,8.94l-3.64,18.33h-4.61l9.62-48.23h4.62l-3.83,19.17c3.16-3.6,7.52-5.4,13.06-5.4,3.86,0,6.86.99,9,2.96Z"/>
      <path class="cls-2" d="m625.17,757.35l-6.83,34.19h-4.42l1.1-5.4c-1.65,1.82-3.6,3.23-5.85,4.23-2.25,1-4.74,1.5-7.47,1.5-2.9,0-5.48-.58-7.74-1.76-2.25-1.17-4.01-2.85-5.26-5.04-1.26-2.19-1.89-4.76-1.89-7.7,0-3.86.83-7.32,2.5-10.4,1.67-3.08,3.98-5.49,6.92-7.25,2.95-1.75,6.24-2.63,9.88-2.63,3.25,0,5.98.64,8.19,1.92,2.21,1.28,3.81,3.11,4.81,5.49l1.43-7.15h4.62Zm-14.89,28.37c2.25-1.37,4.02-3.27,5.3-5.72,1.28-2.45,1.92-5.19,1.92-8.22,0-3.34-.99-5.95-2.96-7.83-1.97-1.89-4.73-2.83-8.29-2.83-2.82,0-5.35.69-7.6,2.08-2.25,1.39-4.02,3.3-5.3,5.75-1.28,2.45-1.92,5.19-1.92,8.22,0,3.34.98,5.94,2.96,7.8,1.97,1.86,4.73,2.79,8.29,2.79,2.82,0,5.35-.68,7.6-2.05Zm-9.62-41.76h6.11l7.41,8.06h-4.62l-8.9-8.06Z"/>
      <path class="cls-2" d="m655.66,781.2c-.17,1.04-.26,1.75-.26,2.15,0,3.03,1.65,4.55,4.94,4.55,1.95,0,3.71-.58,5.27-1.75l1.1,3.51c-1.95,1.47-4.49,2.21-7.6,2.21-2.56,0-4.58-.69-6.08-2.08-1.5-1.39-2.24-3.29-2.24-5.72,0-.95.09-1.84.26-2.67l3.96-20.15h-6.04l.71-3.9h6.11l1.49-7.48h4.62l-1.5,7.48h10.4l-.78,3.9h-10.4l-3.97,19.96Z"/>
      <path class="cls-2" d="m690.37,758.68c2.3-1.06,5.07-1.59,8.32-1.59l-.85,4.49-1.3-.06c-3.68,0-6.71,1.06-9.07,3.18-2.36,2.12-3.96,5.29-4.78,9.49l-3.45,17.35h-4.61l6.76-34.19h4.42l-1.17,6.24c1.52-2.21,3.42-3.84,5.72-4.91Z"/>
      <path class="cls-2" d="m737.88,757.35l-6.83,34.19h-4.42l1.1-5.4c-1.65,1.82-3.6,3.23-5.85,4.23-2.25,1-4.74,1.5-7.47,1.5-2.9,0-5.48-.58-7.74-1.76-2.25-1.17-4.01-2.85-5.26-5.04-1.26-2.19-1.89-4.76-1.89-7.7,0-3.86.83-7.32,2.5-10.4,1.67-3.08,3.98-5.49,6.92-7.25,2.95-1.75,6.24-2.63,9.88-2.63,3.25,0,5.98.64,8.19,1.92,2.21,1.28,3.81,3.11,4.81,5.49l1.43-7.15h4.62Zm-14.89,28.37c2.25-1.37,4.02-3.27,5.3-5.72,1.28-2.45,1.92-5.19,1.92-8.22,0-3.34-.99-5.95-2.96-7.83-1.97-1.89-4.73-2.83-8.29-2.83-2.82,0-5.35.69-7.6,2.08-2.25,1.39-4.02,3.3-5.3,5.75-1.28,2.45-1.92,5.19-1.92,8.22,0,3.34.98,5.94,2.96,7.8,1.97,1.86,4.73,2.79,8.29,2.79,2.82,0,5.35-.68,7.6-2.05Z"/>
      <path class="cls-2" d="m750.69,757.35h4.62l-6.76,34.19h-4.61l6.76-34.19Zm2.05-8.39c-.58-.61-.88-1.32-.88-2.15,0-1,.34-1.83,1.01-2.5s1.53-1.01,2.57-1.01c.91,0,1.67.29,2.27.88.61.58.91,1.27.91,2.05,0,1.04-.35,1.91-1.04,2.6s-1.56,1.04-2.6,1.04c-.91,0-1.66-.3-2.24-.91Z"/>
      <path class="cls-2" d="m765.02,785.75c.63.65.94,1.45.94,2.41,0,.56-.1,1.08-.29,1.56-.19.48-.51,1.1-.94,1.88l-4.94,9.43h-3.12l4.16-9.56c-.56-.26-1.01-.66-1.33-1.2-.33-.54-.49-1.14-.49-1.79,0-1.04.36-1.92,1.07-2.63.71-.71,1.57-1.07,2.57-1.07s1.74.32,2.37.97Z"/>
      <path class="cls-2" d="m531.48,861.05c2.15,1.97,3.22,4.69,3.22,8.16,0,1.21-.13,2.51-.39,3.9l-3.9,19.44h-4.62l3.9-19.5c.22-1.21.33-2.25.33-3.12,0-2.47-.75-4.37-2.24-5.69-1.5-1.32-3.69-1.98-6.6-1.98-3.68,0-6.72,1.01-9.1,3.02-2.38,2.02-3.99,5-4.81,8.94l-3.64,18.33h-4.61l6.76-34.19h4.42l-1.1,5.46c3.25-3.81,7.71-5.72,13.39-5.72,3.86,0,6.86.99,9,2.96Z"/>
      <path class="cls-2" d="m575.48,861.05c2.15,1.97,3.22,4.69,3.22,8.16,0,1.21-.13,2.51-.39,3.9l-3.9,19.44h-4.62l3.9-19.5c.22-1.21.33-2.25.33-3.12,0-2.47-.75-4.37-2.24-5.69-1.5-1.32-3.69-1.98-6.6-1.98-3.68,0-6.72,1.01-9.1,3.02-2.38,2.02-3.99,5-4.81,8.94l-3.64,18.33h-4.61l9.62-48.23h4.62l-3.83,19.17c3.16-3.6,7.52-5.4,13.06-5.4,3.86,0,6.86.99,9,2.96Z"/>
      <path class="cls-2" d="m625.17,858.35l-6.83,34.19h-4.42l1.1-5.4c-1.65,1.82-3.6,3.23-5.85,4.23-2.25,1-4.74,1.5-7.47,1.5-2.9,0-5.48-.58-7.74-1.76-2.25-1.17-4.01-2.85-5.26-5.04-1.26-2.19-1.89-4.76-1.89-7.7,0-3.86.83-7.32,2.5-10.4,1.67-3.08,3.98-5.49,6.92-7.25,2.95-1.75,6.24-2.63,9.88-2.63,3.25,0,5.98.64,8.19,1.92,2.21,1.28,3.81,3.11,4.81,5.49l1.43-7.15h4.62Zm-14.89,28.37c2.25-1.37,4.02-3.27,5.3-5.72,1.28-2.45,1.92-5.19,1.92-8.22,0-3.34-.99-5.95-2.96-7.83-1.97-1.89-4.73-2.83-8.29-2.83-2.82,0-5.35.69-7.6,2.08-2.25,1.39-4.02,3.3-5.3,5.75-1.28,2.45-1.92,5.19-1.92,8.22,0,3.34.98,5.94,2.96,7.8,1.97,1.86,4.73,2.79,8.29,2.79,2.82,0,5.35-.68,7.6-2.05Zm-9.62-41.76h6.11l7.41,8.06h-4.62l-8.9-8.06Z"/>
      <path class="cls-2" d="m686.73,858.35l-5.98,30.03c-1.17,5.98-3.37,10.32-6.6,13.03-3.23,2.71-7.66,4.06-13.29,4.06-3.21,0-6.1-.44-8.68-1.33-2.58-.89-4.76-2.16-6.53-3.8l2.73-3.51c1.39,1.43,3.2,2.54,5.43,3.35,2.23.8,4.69,1.2,7.38,1.2,4.29,0,7.63-1,10.01-2.99,2.38-1.99,3.99-5.07,4.81-9.23l.78-3.77c-1.65,1.86-3.63,3.3-5.95,4.32-2.32,1.02-4.89,1.53-7.7,1.53-4.55,0-8.2-1.24-10.95-3.71-2.75-2.47-4.13-5.83-4.13-10.08,0-3.64.83-6.93,2.5-9.88,1.67-2.95,3.99-5.27,6.96-6.96,2.97-1.69,6.32-2.54,10.04-2.54,3.25,0,6.04.66,8.39,1.98,2.34,1.32,3.99,3.26,4.94,5.82l1.43-7.54h4.42Zm-15.05,26.84c2.28-1.3,4.05-3.1,5.33-5.4,1.28-2.3,1.92-4.88,1.92-7.73,0-3.12-1-5.56-2.99-7.31-1.99-1.75-4.77-2.63-8.32-2.63-2.86,0-5.42.65-7.67,1.95-2.25,1.3-4.02,3.1-5.3,5.4-1.28,2.3-1.92,4.88-1.92,7.74,0,3.12,1,5.56,2.99,7.31,1.99,1.75,4.77,2.63,8.32,2.63,2.82,0,5.36-.65,7.64-1.95Z"/>
      <path class="cls-2" d="m730.86,858.35l-6.83,34.19h-4.42l1.1-5.4c-1.65,1.82-3.6,3.23-5.85,4.23-2.25,1-4.74,1.5-7.47,1.5-2.9,0-5.48-.58-7.74-1.76-2.25-1.17-4.01-2.85-5.26-5.04-1.26-2.19-1.89-4.76-1.89-7.7,0-3.86.83-7.32,2.5-10.4,1.67-3.08,3.98-5.49,6.92-7.25,2.95-1.75,6.24-2.63,9.88-2.63,3.25,0,5.98.64,8.19,1.92,2.21,1.28,3.81,3.11,4.81,5.49l1.43-7.15h4.62Zm-14.89,28.37c2.25-1.37,4.02-3.27,5.3-5.72,1.28-2.45,1.92-5.19,1.92-8.22,0-3.34-.99-5.95-2.96-7.83-1.97-1.89-4.73-2.83-8.29-2.83-2.82,0-5.35.69-7.6,2.08-2.25,1.39-4.02,3.3-5.3,5.75-1.28,2.45-1.92,5.19-1.92,8.22,0,3.34.98,5.94,2.96,7.8,1.97,1.86,4.73,2.79,8.29,2.79,2.82,0,5.35-.68,7.6-2.05Zm5.14-41.76h6.3l-11.38,8.06h-4.81l9.88-8.06Z"/>
      <path class="cls-2" d="m743.66,858.35h4.62l-6.76,34.19h-4.61l6.76-34.19Zm2.05-8.39c-.58-.61-.88-1.32-.88-2.15,0-1,.34-1.83,1.01-2.5s1.53-1.01,2.57-1.01c.91,0,1.67.29,2.27.88.61.58.91,1.27.91,2.05,0,1.04-.35,1.91-1.04,2.6s-1.56,1.04-2.6,1.04c-.91,0-1.66-.3-2.24-.91Z"/>
    </g>
    <g>
      <path class="cls-2" d="m155.33,849.5c-2.62-2.9-3.93-6.93-3.93-12.09s.93-10.08,2.79-14.66c1.86-4.57,4.53-8.24,8-11.02,3.47-2.77,7.45-4.16,11.96-4.16s8.27,1.45,10.89,4.35c2.62,2.9,3.93,6.93,3.93,12.09s-.93,10.09-2.79,14.66c-1.86,4.57-4.53,8.25-7.99,11.02-3.47,2.77-7.45,4.16-11.96,4.16s-8.27-1.45-10.89-4.36Zm20.64-3.74c2.69-2.54,4.73-5.77,6.14-9.72,1.41-3.94,2.11-7.93,2.11-11.96s-.92-6.96-2.76-9.07c-1.84-2.1-4.41-3.15-7.7-3.15-3.55,0-6.67,1.27-9.36,3.8-2.69,2.53-4.73,5.77-6.14,9.72-1.41,3.94-2.11,7.93-2.11,11.96s.92,6.97,2.76,9.07c1.84,2.1,4.41,3.15,7.7,3.15,3.55,0,6.67-1.27,9.36-3.8Z"/>
      <path class="cls-2" d="m226.31,834.1c1.15,1.65,1.72,3.6,1.72,5.85,0,2.82-.76,5.28-2.27,7.38-1.52,2.1-3.67,3.72-6.47,4.84-2.79,1.13-6.03,1.69-9.72,1.69-5.2,0-9.29-1.07-12.29-3.22-2.99-2.15-4.48-5.08-4.48-8.81,0-3.25.98-5.97,2.92-8.16,1.95-2.19,4.72-3.72,8.32-4.58-1.73-.91-3.06-2.1-3.96-3.58-.91-1.47-1.37-3.16-1.37-5.07,0-2.64.69-4.93,2.08-6.86,1.39-1.93,3.34-3.41,5.85-4.45,2.51-1.04,5.44-1.56,8.77-1.56,4.64,0,8.35,1,11.15,2.99s4.19,4.68,4.19,8.06c0,2.82-.81,5.22-2.44,7.21-1.62,1.99-3.95,3.42-6.99,4.29,2.17,1,3.82,2.32,4.97,3.96Zm-6.66,13.13c2.43-1.78,3.64-4.18,3.64-7.21,0-2.6-1.08-4.65-3.25-6.14-2.17-1.49-5.16-2.24-8.97-2.24-4.16,0-7.45.89-9.88,2.67-2.43,1.78-3.64,4.18-3.64,7.21,0,2.6,1.07,4.65,3.22,6.14s5.12,2.24,8.94,2.24c4.2,0,7.52-.89,9.95-2.67Zm-13-33.31c-2.12,1.58-3.19,3.74-3.19,6.47,0,2.34.93,4.18,2.79,5.53,1.86,1.34,4.48,2.01,7.86,2.01,3.64,0,6.53-.79,8.68-2.37s3.22-3.69,3.22-6.34c0-2.38-.97-4.26-2.92-5.62-1.95-1.37-4.57-2.05-7.87-2.05-3.6,0-6.46.79-8.58,2.37Z"/>
      <path class="cls-2" d="m233.69,852.82c-.65-.65-.98-1.45-.98-2.41,0-1.04.36-1.92,1.07-2.63.71-.71,1.57-1.07,2.57-1.07s1.74.33,2.37.97c.63.65.94,1.45.94,2.41,0,1.04-.36,1.92-1.07,2.63-.72.71-1.55,1.07-2.5,1.07s-1.75-.33-2.4-.97Zm5.52-27.69c-.65-.65-.98-1.45-.98-2.41,0-1.04.36-1.92,1.07-2.63s1.57-1.07,2.57-1.07,1.74.33,2.37.98c.63.65.94,1.45.94,2.41,0,1.04-.36,1.92-1.07,2.63-.72.71-1.55,1.07-2.5,1.07s-1.76-.32-2.41-.97Z"/>
      <path class="cls-2" d="m253.61,849.5c-2.62-2.9-3.93-6.93-3.93-12.09s.93-10.08,2.79-14.66c1.86-4.57,4.53-8.24,8-11.02,3.47-2.77,7.45-4.16,11.96-4.16s8.27,1.45,10.89,4.35c2.62,2.9,3.93,6.93,3.93,12.09s-.93,10.09-2.79,14.66c-1.86,4.57-4.53,8.25-7.99,11.02-3.47,2.77-7.45,4.16-11.96,4.16s-8.27-1.45-10.89-4.36Zm20.64-3.74c2.69-2.54,4.73-5.77,6.14-9.72,1.41-3.94,2.11-7.93,2.11-11.96s-.92-6.96-2.76-9.07c-1.84-2.1-4.41-3.15-7.7-3.15-3.55,0-6.67,1.27-9.36,3.8-2.69,2.53-4.73,5.77-6.14,9.72-1.41,3.94-2.11,7.93-2.11,11.96s.92,6.97,2.76,9.07c1.84,2.1,4.41,3.15,7.7,3.15,3.55,0,6.67-1.27,9.36-3.8Z"/>
      <path class="cls-2" d="m296.64,849.5c-2.62-2.9-3.93-6.93-3.93-12.09s.93-10.08,2.79-14.66c1.86-4.57,4.53-8.24,8-11.02,3.47-2.77,7.45-4.16,11.96-4.16s8.27,1.45,10.89,4.35c2.62,2.9,3.93,6.93,3.93,12.09s-.93,10.09-2.79,14.66c-1.86,4.57-4.53,8.25-7.99,11.02-3.47,2.77-7.45,4.16-11.96,4.16s-8.27-1.45-10.89-4.36Zm20.64-3.74c2.69-2.54,4.73-5.77,6.14-9.72,1.41-3.94,2.11-7.93,2.11-11.96s-.92-6.96-2.76-9.07c-1.84-2.1-4.41-3.15-7.7-3.15-3.55,0-6.67,1.27-9.36,3.8-2.69,2.53-4.73,5.77-6.14,9.72-1.41,3.94-2.11,7.93-2.11,11.96s.92,6.97,2.76,9.07c1.84,2.1,4.41,3.15,7.7,3.15,3.55,0,6.67-1.27,9.36-3.8Z"/>
      <path class="cls-2" d="m88.68,927.31h24.7l-.85,4.16h-31.98l.72-3.31,22.75-18.46c3.21-2.56,5.42-4.78,6.63-6.66,1.21-1.88,1.82-3.87,1.82-5.95,0-2.3-.81-4.09-2.44-5.39-1.62-1.3-4.08-1.95-7.38-1.95-2.38,0-4.67.46-6.86,1.36-2.19.91-4.08,2.19-5.69,3.84l-3.25-2.8c1.86-2.04,4.25-3.64,7.15-4.81,2.9-1.17,6-1.75,9.29-1.75,4.46,0,7.91.99,10.33,2.96,2.43,1.97,3.64,4.63,3.64,7.96,0,2.69-.74,5.26-2.21,7.74-1.47,2.47-4.07,5.2-7.8,8.19l-18.59,14.88Z"/>
      <path class="cls-2" d="m125.89,927.5c-2.62-2.9-3.93-6.93-3.93-12.09s.93-10.08,2.79-14.66c1.86-4.57,4.53-8.24,8-11.02,3.47-2.77,7.45-4.16,11.96-4.16s8.27,1.45,10.89,4.35c2.62,2.9,3.93,6.93,3.93,12.09s-.93,10.09-2.79,14.66c-1.86,4.57-4.53,8.25-7.99,11.02-3.47,2.77-7.45,4.16-11.96,4.16s-8.27-1.45-10.89-4.36Zm20.64-3.74c2.69-2.54,4.73-5.77,6.14-9.72,1.41-3.94,2.11-7.93,2.11-11.96s-.92-6.96-2.76-9.07c-1.84-2.1-4.41-3.15-7.7-3.15-3.55,0-6.67,1.27-9.36,3.8-2.69,2.53-4.73,5.77-6.14,9.72-1.41,3.94-2.11,7.93-2.11,11.96s.92,6.97,2.76,9.07c1.84,2.1,4.41,3.15,7.7,3.15,3.55,0,6.67-1.27,9.36-3.8Z"/>
      <path class="cls-2" d="m186.96,876.74h4.48l-33.54,61.23h-4.48l33.54-61.23Z"/>
      <path class="cls-2" d="m218.35,889.28l-16.06,16.25c3.9.3,6.9,1.45,9,3.44,2.1,1.99,3.15,4.66,3.15,8,0,2.9-.78,5.48-2.34,7.74-1.56,2.25-3.75,4.01-6.56,5.26-2.82,1.26-6.07,1.89-9.75,1.89-3.47,0-6.56-.53-9.29-1.59-2.73-1.06-4.83-2.5-6.31-4.32l2.6-3.64c1.26,1.6,3.04,2.88,5.36,3.83,2.32.95,4.95,1.43,7.9,1.43,4.25,0,7.57-.93,9.98-2.79,2.4-1.86,3.61-4.38,3.61-7.54,0-5.24-3.66-7.87-10.99-7.87h-2.92l.71-3.45,15.6-15.79h-23.07l.84-4.16h29.19l-.65,3.32Z"/>
      <path class="cls-2" d="m245.39,876.74h4.48l-33.54,61.23h-4.48l33.54-61.23Z"/>
      <path class="cls-2" d="m247.27,927.31h24.7l-.85,4.16h-31.98l.72-3.31,22.75-18.46c3.21-2.56,5.42-4.78,6.63-6.66,1.21-1.88,1.82-3.87,1.82-5.95,0-2.3-.81-4.09-2.44-5.39-1.62-1.3-4.08-1.95-7.38-1.95-2.38,0-4.67.46-6.86,1.36-2.19.91-4.08,2.19-5.69,3.84l-3.25-2.8c1.86-2.04,4.25-3.64,7.15-4.81,2.9-1.17,6-1.75,9.29-1.75,4.46,0,7.91.99,10.33,2.96,2.43,1.97,3.64,4.63,3.64,7.96,0,2.69-.74,5.26-2.21,7.74-1.47,2.47-4.07,5.2-7.8,8.19l-18.59,14.88Z"/>
      <path class="cls-2" d="m284.49,927.5c-2.62-2.9-3.93-6.93-3.93-12.09s.93-10.08,2.79-14.66c1.86-4.57,4.53-8.24,8-11.02,3.47-2.77,7.45-4.16,11.96-4.16s8.27,1.45,10.89,4.35c2.62,2.9,3.93,6.93,3.93,12.09s-.93,10.09-2.79,14.66c-1.86,4.57-4.53,8.25-7.99,11.02-3.47,2.77-7.45,4.16-11.96,4.16s-8.27-1.45-10.89-4.36Zm20.64-3.74c2.69-2.54,4.73-5.77,6.14-9.72,1.41-3.94,2.11-7.93,2.11-11.96s-.92-6.96-2.76-9.07c-1.84-2.1-4.41-3.15-7.7-3.15-3.55,0-6.67,1.27-9.36,3.8-2.69,2.53-4.73,5.77-6.14,9.72-1.41,3.94-2.11,7.93-2.11,11.96s.92,6.97,2.76,9.07c1.84,2.1,4.41,3.15,7.7,3.15,3.55,0,6.67-1.27,9.36-3.8Z"/>
      <path class="cls-2" d="m326.83,927.31h24.7l-.85,4.16h-31.98l.72-3.31,22.75-18.46c3.21-2.56,5.42-4.78,6.63-6.66,1.21-1.88,1.82-3.87,1.82-5.95,0-2.3-.81-4.09-2.44-5.39-1.62-1.3-4.08-1.95-7.38-1.95-2.38,0-4.67.46-6.86,1.36-2.19.91-4.08,2.19-5.69,3.84l-3.25-2.8c1.86-2.04,4.25-3.64,7.15-4.81,2.9-1.17,6-1.75,9.29-1.75,4.46,0,7.91.99,10.33,2.96,2.43,1.97,3.64,4.63,3.64,7.96,0,2.69-.74,5.26-2.21,7.74-1.47,2.47-4.07,5.2-7.8,8.19l-18.59,14.88Z"/>
      <path class="cls-2" d="m396.12,919.51h-9.17l-2.41,11.96h-4.68l2.4-11.96h-25.61l.65-3.38,29.77-30.16h5.52l-28.86,29.38h19.5l2.15-10.53h4.48l-2.08,10.53h9.1l-.78,4.16Z"/>
    </g>
    <g>
      <path class="cls-2" d="m188.32,443.43l-9.1,45.5h-4.74l8.25-41.34h-10.73l.85-4.16h15.47Z"/>
      <path class="cls-2" d="m208.05,450.16c-2.88,2.02-5.05,4.61-6.5,7.8-1.45,3.19-2.31,6.6-2.57,10.24,1.47-2.21,3.39-3.85,5.75-4.91,2.36-1.06,4.95-1.59,7.77-1.59s5.21.51,7.44,1.53c2.23,1.02,3.99,2.49,5.26,4.42,1.28,1.93,1.92,4.21,1.92,6.86,0,2.99-.7,5.6-2.11,7.83-1.41,2.23-3.36,3.96-5.85,5.17-2.49,1.21-5.32,1.82-8.48,1.82-5.07,0-9.12-1.55-12.15-4.65-3.03-3.1-4.55-7.55-4.55-13.36,0-4.64.87-9.11,2.6-13.42,1.73-4.31,4.47-7.86,8.22-10.66,3.75-2.8,8.48-4.19,14.2-4.19,4.72,0,8.36.85,10.92,2.54l-2.21,3.77c-2.25-1.47-5.24-2.21-8.97-2.21-4.25,0-7.81,1.01-10.69,3.02Zm-2.89,16.87c-1.86.91-3.3,2.16-4.32,3.74-1.02,1.58-1.53,3.33-1.53,5.23,0,1.6.43,3.12,1.3,4.55.87,1.43,2.16,2.59,3.87,3.48,1.71.89,3.76,1.33,6.14,1.33,3.55,0,6.4-.94,8.55-2.83,2.15-1.89,3.22-4.45,3.22-7.7,0-2.9-1-5.16-2.99-6.76-1.99-1.6-4.61-2.4-7.86-2.4-2.38,0-4.51.46-6.37,1.37Z"/>
      <path class="cls-2" d="m231.29,488.28c-.65-.65-.98-1.45-.98-2.41,0-1.04.36-1.92,1.07-2.63.71-.71,1.57-1.07,2.57-1.07s1.74.32,2.37.97c.63.65.94,1.45.94,2.41,0,1.04-.36,1.92-1.07,2.63-.72.71-1.55,1.07-2.5,1.07s-1.75-.33-2.4-.98Zm5.52-27.69c-.65-.65-.98-1.45-.98-2.41,0-1.04.36-1.92,1.07-2.63s1.57-1.07,2.57-1.07,1.74.33,2.37.98c.63.65.94,1.45.94,2.41,0,1.04-.36,1.92-1.07,2.63-.72.71-1.55,1.07-2.5,1.07s-1.76-.32-2.41-.97Z"/>
      <path class="cls-2" d="m251.21,484.96c-2.62-2.9-3.93-6.93-3.93-12.09s.93-10.08,2.79-14.66c1.86-4.57,4.53-8.24,8-11.02,3.47-2.77,7.45-4.16,11.96-4.16s8.27,1.45,10.89,4.35c2.62,2.9,3.93,6.93,3.93,12.09s-.93,10.09-2.79,14.66c-1.86,4.57-4.53,8.25-7.99,11.02-3.47,2.77-7.45,4.16-11.96,4.16s-8.27-1.45-10.89-4.35Zm20.64-3.74c2.69-2.53,4.73-5.77,6.14-9.72,1.41-3.94,2.11-7.93,2.11-11.96s-.92-6.97-2.76-9.07c-1.84-2.1-4.41-3.15-7.7-3.15-3.55,0-6.67,1.27-9.36,3.8-2.69,2.53-4.73,5.77-6.14,9.72-1.41,3.94-2.11,7.93-2.11,11.96s.92,6.97,2.76,9.07c1.84,2.1,4.41,3.15,7.7,3.15,3.55,0,6.67-1.27,9.36-3.8Z"/>
      <path class="cls-2" d="m294.24,484.96c-2.62-2.9-3.93-6.93-3.93-12.09s.93-10.08,2.79-14.66c1.86-4.57,4.53-8.24,8-11.02,3.47-2.77,7.45-4.16,11.96-4.16s8.27,1.45,10.89,4.35c2.62,2.9,3.93,6.93,3.93,12.09s-.93,10.09-2.79,14.66c-1.86,4.57-4.53,8.25-7.99,11.02-3.47,2.77-7.45,4.16-11.96,4.16s-8.27-1.45-10.89-4.35Zm20.64-3.74c2.69-2.53,4.73-5.77,6.14-9.72,1.41-3.94,2.11-7.93,2.11-11.96s-.92-6.97-2.76-9.07c-1.84-2.1-4.41-3.15-7.7-3.15-3.55,0-6.67,1.27-9.36,3.8-2.69,2.53-4.73,5.77-6.14,9.72-1.41,3.94-2.11,7.93-2.11,11.96s.92,6.97,2.76,9.07c1.84,2.1,4.41,3.15,7.7,3.15,3.55,0,6.67-1.27,9.36-3.8Z"/>
      <path class="cls-2" d="m119.81,521.43l-9.1,45.5h-4.74l8.25-41.34h-10.73l.85-4.16h15.47Z"/>
      <path class="cls-2" d="m154.98,525.69c3.03,3.1,4.55,7.55,4.55,13.36,0,4.64-.87,9.11-2.6,13.42-1.73,4.31-4.47,7.86-8.22,10.66-3.75,2.8-8.5,4.19-14.27,4.19-4.68,0-8.3-.85-10.85-2.54l2.21-3.77c2.25,1.47,5.24,2.21,8.97,2.21,4.2,0,7.75-1.01,10.63-3.02,2.88-2.02,5.06-4.62,6.53-7.83,1.47-3.21,2.34-6.63,2.6-10.27-1.47,2.25-3.39,3.91-5.75,4.97-2.36,1.06-4.95,1.59-7.77,1.59s-5.21-.51-7.44-1.53c-2.23-1.02-3.99-2.49-5.27-4.42-1.28-1.93-1.92-4.21-1.92-6.86,0-2.99.7-5.6,2.11-7.83,1.41-2.23,3.36-3.95,5.85-5.17,2.49-1.21,5.32-1.82,8.48-1.82,5.07,0,9.12,1.55,12.16,4.65Zm-6.63,17.65c1.86-.91,3.3-2.15,4.32-3.74,1.02-1.58,1.53-3.33,1.53-5.23,0-1.6-.43-3.12-1.3-4.55-.87-1.43-2.16-2.59-3.87-3.48-1.71-.89-3.76-1.33-6.14-1.33-3.55,0-6.4.94-8.55,2.83-2.15,1.89-3.22,4.45-3.22,7.7,0,2.9,1,5.16,2.99,6.76,1.99,1.6,4.62,2.4,7.87,2.4,2.38,0,4.51-.46,6.37-1.37Z"/>
      <path class="cls-2" d="m186.96,512.2h4.48l-33.54,61.23h-4.48l33.54-61.23Z"/>
      <path class="cls-2" d="m218.35,524.74l-16.06,16.25c3.9.3,6.9,1.45,9,3.44,2.1,1.99,3.15,4.66,3.15,8,0,2.9-.78,5.48-2.34,7.74-1.56,2.25-3.75,4.01-6.56,5.26-2.82,1.26-6.07,1.89-9.75,1.89-3.47,0-6.56-.53-9.29-1.59-2.73-1.06-4.83-2.5-6.31-4.32l2.6-3.64c1.26,1.6,3.04,2.88,5.36,3.83,2.32.95,4.95,1.43,7.9,1.43,4.25,0,7.57-.93,9.98-2.79,2.4-1.86,3.61-4.38,3.61-7.54,0-5.24-3.66-7.87-10.99-7.87h-2.92l.71-3.44,15.6-15.79h-23.07l.84-4.16h29.19l-.65,3.31Z"/>
      <path class="cls-2" d="m245.39,512.2h4.48l-33.54,61.23h-4.48l33.54-61.23Z"/>
      <path class="cls-2" d="m247.27,562.77h24.7l-.85,4.16h-31.98l.72-3.31,22.75-18.46c3.21-2.56,5.42-4.78,6.63-6.66,1.21-1.88,1.82-3.87,1.82-5.95,0-2.3-.81-4.1-2.44-5.4-1.62-1.3-4.08-1.95-7.38-1.95-2.38,0-4.67.46-6.86,1.36-2.19.91-4.08,2.19-5.69,3.84l-3.25-2.8c1.86-2.04,4.25-3.64,7.15-4.81,2.9-1.17,6-1.76,9.29-1.76,4.46,0,7.91.99,10.33,2.96,2.43,1.97,3.64,4.63,3.64,7.96,0,2.69-.74,5.27-2.21,7.74-1.47,2.47-4.07,5.2-7.8,8.19l-18.59,14.88Z"/>
      <path class="cls-2" d="m284.49,562.96c-2.62-2.9-3.93-6.93-3.93-12.09s.93-10.08,2.79-14.66c1.86-4.57,4.53-8.24,8-11.02,3.47-2.77,7.45-4.16,11.96-4.16s8.27,1.45,10.89,4.35c2.62,2.9,3.93,6.93,3.93,12.09s-.93,10.09-2.79,14.66c-1.86,4.57-4.53,8.25-7.99,11.02-3.47,2.77-7.45,4.16-11.96,4.16s-8.27-1.45-10.89-4.35Zm20.64-3.74c2.69-2.53,4.73-5.77,6.14-9.72,1.41-3.94,2.11-7.93,2.11-11.96s-.92-6.97-2.76-9.07c-1.84-2.1-4.41-3.15-7.7-3.15-3.55,0-6.67,1.27-9.36,3.8-2.69,2.53-4.73,5.77-6.14,9.72-1.41,3.94-2.11,7.93-2.11,11.96s.92,6.97,2.76,9.07c1.84,2.1,4.41,3.15,7.7,3.15,3.55,0,6.67-1.27,9.36-3.8Z"/>
      <path class="cls-2" d="m326.83,562.77h24.7l-.85,4.16h-31.98l.72-3.31,22.75-18.46c3.21-2.56,5.42-4.78,6.63-6.66,1.21-1.88,1.82-3.87,1.82-5.95,0-2.3-.81-4.1-2.44-5.4-1.62-1.3-4.08-1.95-7.38-1.95-2.38,0-4.67.46-6.86,1.36-2.19.91-4.08,2.19-5.69,3.84l-3.25-2.8c1.86-2.04,4.25-3.64,7.15-4.81,2.9-1.17,6-1.76,9.29-1.76,4.46,0,7.91.99,10.33,2.96,2.43,1.97,3.64,4.63,3.64,7.96,0,2.69-.74,5.27-2.21,7.74-1.47,2.47-4.07,5.2-7.8,8.19l-18.59,14.88Z"/>
      <path class="cls-2" d="m396.12,554.97h-9.17l-2.41,11.96h-4.68l2.4-11.96h-25.61l.65-3.38,29.77-30.16h5.52l-28.86,29.38h19.5l2.15-10.53h4.48l-2.08,10.53h9.1l-.78,4.16Z"/>
    </g>
  </g>
  <g>
    <line class="cls-1" x1="408.39" y1="1582.16" x2="474.39" y2="1582.16"/>
    <g>
      <path class="cls-2" d="m509.08,1536.33h4.75l-8.25,41.34h25.48l-.85,4.16h-30.23l9.1-45.5Z"/>
      <path class="cls-2" d="m541.06,1566.04c-.04.3-.07.76-.07,1.36,0,3.47.99,6.11,2.96,7.93,1.97,1.82,4.91,2.73,8.81,2.73,2.25,0,4.37-.38,6.34-1.14,1.97-.76,3.59-1.81,4.84-3.15l2.08,3.32c-1.6,1.6-3.61,2.85-6.01,3.74-2.4.89-4.95,1.33-7.64,1.33-4.94,0-8.83-1.3-11.67-3.9-2.84-2.6-4.26-6.15-4.26-10.66,0-3.81.81-7.26,2.44-10.33,1.62-3.08,3.88-5.49,6.76-7.25,2.88-1.75,6.12-2.63,9.72-2.63,4.55,0,8.17,1.29,10.85,3.87,2.69,2.58,4.03,6.12,4.03,10.63,0,1.26-.15,2.64-.45,4.16h-28.73Zm5.4-11.7c-2.43,2.04-4.07,4.79-4.94,8.25h24.38c.04-.3.07-.71.07-1.24,0-3.21-.98-5.69-2.93-7.44-1.95-1.75-4.55-2.63-7.8-2.63-3.42,0-6.35,1.02-8.77,3.05Zm17.42-11.9l-5.72-3.83-6.82,3.83h-4.55l9.29-6.11h4.55l7.6,6.11h-4.35Zm-2.63-8.71c-.71-.35-1.48-.84-2.31-1.5-.69-.52-1.26-.9-1.69-1.14-.43-.24-.91-.36-1.43-.36-1,0-1.82.29-2.47.88s-1.08,1.38-1.3,2.37h-2.79c.3-1.86,1.05-3.33,2.24-4.39,1.19-1.06,2.63-1.59,4.32-1.59.91,0,1.72.17,2.44.52.71.35,1.48.84,2.31,1.49.65.52,1.21.9,1.69,1.14.48.24.97.36,1.49.36,1,0,1.83-.28,2.5-.84.67-.56,1.11-1.34,1.33-2.34h2.73c-.35,1.82-1.1,3.26-2.24,4.32-1.15,1.06-2.59,1.59-4.32,1.59-.95,0-1.79-.17-2.5-.52Z"/>
      <path class="cls-2" d="m600.15,1580.37c-2.38-1.19-4.21-2.88-5.49-5.07-1.28-2.19-1.92-4.73-1.92-7.64,0-3.86.85-7.32,2.54-10.4,1.69-3.08,4.05-5.49,7.08-7.25,3.03-1.75,6.46-2.63,10.27-2.63,3.16,0,5.88.58,8.16,1.72,2.28,1.15,4.04,2.85,5.3,5.1l-3.9,2.27c-1.95-3.38-5.26-5.07-9.94-5.07-2.82,0-5.36.69-7.64,2.08-2.27,1.39-4.05,3.29-5.33,5.72-1.28,2.43-1.92,5.18-1.92,8.25,0,3.34.98,5.94,2.96,7.8,1.97,1.86,4.78,2.79,8.42,2.79,2.21,0,4.26-.42,6.14-1.27,1.89-.84,3.43-2.07,4.65-3.67l3.32,2.54c-1.52,2.04-3.54,3.63-6.08,4.78-2.54,1.15-5.28,1.72-8.22,1.72-3.21,0-6-.6-8.38-1.79Z"/>
      <path class="cls-2" d="m667.29,1547.64l-6.82,34.19h-4.42l1.1-5.46c-3.21,3.86-7.6,5.79-13.19,5.79-3.81,0-6.79-.99-8.94-2.96-2.15-1.97-3.22-4.71-3.22-8.22,0-1.21.13-2.49.39-3.83l3.9-19.5h4.61l-3.9,19.5c-.22,1.21-.33,2.23-.33,3.06,0,2.51.73,4.44,2.18,5.78,1.45,1.34,3.63,2.02,6.53,2.02,3.64,0,6.65-1.02,9.04-3.06,2.38-2.04,3.99-5,4.81-8.9l3.64-18.4h4.61Zm-3.31-.06h.98c1.43,0,2.5-.4,3.22-1.2.72-.8,1.07-1.85,1.07-3.15,0-1.56-.43-2.95-1.3-4.16l3.06-1.17c1.13,1.65,1.69,3.47,1.69,5.46,0,2.34-.67,4.23-2.02,5.66-1.34,1.43-3.25,2.14-5.72,2.14h-.98v-3.57Z"/>
      <path class="cls-2" d="m708.53,1548.91c-1.41,1.37-3.33,2.09-5.75,2.18,3.12,2.51,4.68,6.09,4.68,10.72,0,3.86-.84,7.33-2.53,10.43-1.69,3.1-4.04,5.53-7.05,7.28-3.01,1.75-6.4,2.63-10.17,2.63-3.12,0-5.85-.6-8.19-1.79-2.34-1.19-4.15-2.88-5.43-5.07-1.28-2.19-1.92-4.73-1.92-7.64,0-3.86.85-7.32,2.54-10.4,1.69-3.08,4.04-5.49,7.05-7.25,3.01-1.75,6.4-2.63,10.17-2.63,2.04,0,4.18.09,6.43.26,1.73.09,3.03.13,3.9.13,1.52,0,2.73-.4,3.64-1.2.91-.8,1.37-1.92,1.37-3.35,0-1.34-.43-2.73-1.3-4.16l2.99-1.17c1.13,1.6,1.69,3.42,1.69,5.46,0,2.34-.7,4.19-2.11,5.56Zm-12.9,27.11c2.25-1.37,4.02-3.27,5.3-5.72,1.28-2.45,1.92-5.19,1.92-8.22,0-3.34-.99-5.95-2.96-7.83-1.97-1.88-4.73-2.83-8.29-2.83-2.82,0-5.35.69-7.6,2.08-2.25,1.39-4.02,3.3-5.3,5.75-1.28,2.45-1.92,5.19-1.92,8.22,0,3.34.98,5.94,2.96,7.8,1.97,1.86,4.73,2.79,8.29,2.79,2.82,0,5.35-.68,7.6-2.05Zm4.03-41.76h6.3l-11.38,8.06h-4.81l9.88-8.06Z"/>
      <path class="cls-2" d="m720.01,1547.64h4.62l-6.76,34.19h-4.61l6.76-34.19Zm2.05-8.38c-.58-.61-.88-1.32-.88-2.15,0-1,.34-1.83,1.01-2.5.67-.67,1.53-1.01,2.57-1.01.91,0,1.67.29,2.27.88.61.58.91,1.27.91,2.05,0,1.04-.35,1.91-1.04,2.6-.69.69-1.56,1.04-2.6,1.04-.91,0-1.66-.3-2.24-.91Z"/>
      <path class="cls-2" d="m506.42,1643.5c-.17,1.04-.26,1.75-.26,2.14,0,3.03,1.65,4.55,4.94,4.55,1.95,0,3.71-.58,5.27-1.75l1.1,3.51c-1.95,1.47-4.49,2.21-7.6,2.21-2.56,0-4.58-.69-6.08-2.08s-2.24-3.29-2.24-5.72c0-.95.09-1.84.26-2.67l3.96-20.15h-6.04l.71-3.9h6.11l1.49-7.47h4.62l-1.5,7.47h10.4l-.78,3.9h-10.4l-3.97,19.96Z"/>
      <path class="cls-2" d="m531.18,1652.37c-2.34-1.19-4.15-2.88-5.43-5.07-1.28-2.19-1.92-4.73-1.92-7.64,0-3.86.85-7.32,2.54-10.4,1.69-3.08,4.04-5.49,7.05-7.25,3.01-1.75,6.4-2.63,10.17-2.63,4.77,0,8.55,1.3,11.34,3.9,2.79,2.6,4.19,6.11,4.19,10.53,0,3.86-.84,7.33-2.53,10.43-1.69,3.1-4.04,5.53-7.05,7.28-3.01,1.75-6.4,2.63-10.17,2.63-3.12,0-5.85-.6-8.19-1.79Zm16.12-4.35c2.25-1.37,4.02-3.27,5.3-5.72,1.28-2.45,1.92-5.19,1.92-8.22,0-3.34-.99-5.95-2.96-7.83-1.97-1.88-4.73-2.83-8.29-2.83-2.82,0-5.35.69-7.6,2.08-2.25,1.39-4.02,3.3-5.3,5.75-1.28,2.45-1.92,5.19-1.92,8.22,0,3.34.98,5.94,2.96,7.8,1.97,1.86,4.73,2.79,8.29,2.79,2.82,0,5.35-.68,7.6-2.05Zm4.94-33.7l-5.72-3.83-6.83,3.83h-4.55l9.29-6.11h4.55l7.61,6.11h-4.36Zm1.3-5.98c2.08-.87,3.12-2.04,3.12-3.51,0-.56-.2-1.02-.58-1.37-.39-.35-.93-.52-1.62-.52-1.04,0-2.04.26-2.99.78l-.71-2.01c1.34-.74,2.75-1.11,4.23-1.11,1.3,0,2.34.35,3.12,1.04.78.69,1.17,1.6,1.17,2.73,0,1.21-.39,2.3-1.17,3.25-.78.95-1.88,1.73-3.31,2.34l-1.23-1.62Z"/>
      <path class="cls-2" d="m589.03,1652.37c-2.38-1.19-4.21-2.88-5.49-5.07-1.28-2.19-1.92-4.73-1.92-7.64,0-3.86.85-7.32,2.54-10.4,1.69-3.08,4.05-5.49,7.08-7.25,3.03-1.75,6.46-2.63,10.27-2.63,3.16,0,5.88.58,8.16,1.72,2.28,1.15,4.04,2.85,5.3,5.1l-3.9,2.27c-1.95-3.38-5.26-5.07-9.94-5.07-2.82,0-5.36.69-7.64,2.08-2.27,1.39-4.05,3.29-5.33,5.72-1.28,2.43-1.92,5.18-1.92,8.25,0,3.34.98,5.94,2.96,7.8,1.97,1.86,4.78,2.79,8.42,2.79,2.21,0,4.26-.42,6.14-1.27,1.89-.84,3.43-2.07,4.65-3.67l3.32,2.54c-1.52,2.04-3.54,3.63-6.08,4.78-2.54,1.15-5.28,1.72-8.22,1.72-3.21,0-6-.6-8.38-1.79Z"/>
      <path class="cls-2" d="m650.49,1622.34c2.15,1.97,3.22,4.69,3.22,8.16,0,1.21-.13,2.51-.39,3.9l-3.9,19.44h-4.62l3.9-19.5c.22-1.21.33-2.25.33-3.12,0-2.47-.75-4.37-2.24-5.69-1.5-1.32-3.69-1.98-6.6-1.98-3.68,0-6.72,1.01-9.1,3.02-2.38,2.01-3.99,5-4.81,8.94l-3.64,18.33h-4.61l9.62-48.23h4.62l-3.83,19.17c3.16-3.6,7.52-5.39,13.06-5.39,3.86,0,6.86.99,9,2.96Z"/>
      <path class="cls-2" d="m699.66,1619.64l-6.82,34.19h-4.42l1.1-5.46c-3.21,3.86-7.6,5.79-13.19,5.79-3.81,0-6.79-.99-8.94-2.96-2.15-1.97-3.22-4.71-3.22-8.22,0-1.21.13-2.49.39-3.83l3.9-19.5h4.61l-3.9,19.5c-.22,1.21-.33,2.23-.33,3.06,0,2.51.73,4.44,2.18,5.78,1.45,1.34,3.63,2.02,6.53,2.02,3.64,0,6.65-1.02,9.04-3.06,2.38-2.04,3.99-5,4.81-8.9l3.64-18.4h4.61Zm-9.04-13.39h6.31l-11.38,8.06h-4.81l9.88-8.06Zm5.72,13.33h.98c1.43,0,2.5-.4,3.22-1.2.72-.8,1.07-1.85,1.07-3.15,0-1.56-.43-2.95-1.3-4.16l3.06-1.17c1.13,1.65,1.69,3.47,1.69,5.46,0,2.34-.67,4.23-2.02,5.66-1.34,1.43-3.25,2.14-5.72,2.14h-.98v-3.57Z"/>
      <path class="cls-2" d="m711.95,1652.37c-2.38-1.19-4.21-2.88-5.49-5.07-1.28-2.19-1.92-4.73-1.92-7.64,0-3.86.85-7.32,2.54-10.4,1.69-3.08,4.05-5.49,7.08-7.25,3.03-1.75,6.46-2.63,10.27-2.63,3.16,0,5.88.58,8.16,1.72,2.28,1.15,4.04,2.85,5.3,5.1l-3.9,2.27c-1.95-3.38-5.26-5.07-9.94-5.07-2.82,0-5.36.69-7.64,2.08-2.27,1.39-4.05,3.29-5.33,5.72-1.28,2.43-1.92,5.18-1.92,8.25,0,3.34.98,5.94,2.96,7.8,1.97,1.86,4.78,2.79,8.42,2.79,2.21,0,4.26-.42,6.14-1.27,1.89-.84,3.43-2.07,4.65-3.67l3.32,2.54c-1.52,2.04-3.54,3.63-6.08,4.78-2.54,1.15-5.28,1.72-8.22,1.72-3.21,0-6-.6-8.38-1.79Z"/>
      <path class="cls-2" d="m506.42,1715.5c-.17,1.04-.26,1.75-.26,2.14,0,3.03,1.65,4.55,4.94,4.55,1.95,0,3.71-.58,5.27-1.75l1.1,3.51c-1.95,1.47-4.49,2.21-7.6,2.21-2.56,0-4.58-.69-6.08-2.08s-2.24-3.29-2.24-5.72c0-.95.09-1.84.26-2.67l3.96-20.15h-6.04l.71-3.9h6.11l1.49-7.47h4.62l-1.5,7.47h10.4l-.78,3.9h-10.4l-3.97,19.96Z"/>
      <path class="cls-2" d="m562.19,1691.64l-6.83,34.19h-4.42l1.1-5.4c-1.65,1.82-3.6,3.23-5.85,4.23-2.25,1-4.74,1.5-7.47,1.5-2.9,0-5.48-.58-7.74-1.76-2.25-1.17-4.01-2.85-5.26-5.04-1.26-2.19-1.89-4.75-1.89-7.7,0-3.86.83-7.32,2.5-10.4,1.67-3.08,3.98-5.49,6.92-7.25,2.95-1.75,6.24-2.63,9.88-2.63,3.25,0,5.98.64,8.19,1.92,2.21,1.28,3.81,3.11,4.81,5.49l1.43-7.15h4.62Zm-14.89,28.37c2.25-1.37,4.02-3.27,5.3-5.72,1.28-2.45,1.92-5.19,1.92-8.22,0-3.34-.99-5.95-2.96-7.83-1.97-1.88-4.73-2.83-8.29-2.83-2.82,0-5.35.69-7.6,2.08-2.25,1.39-4.02,3.3-5.3,5.75-1.28,2.45-1.92,5.19-1.92,8.22,0,3.34.98,5.94,2.96,7.8,1.97,1.86,4.73,2.79,8.29,2.79,2.82,0,5.35-.68,7.6-2.05Zm-12.19,17.48c-.45-.46-.68-1.05-.68-1.79,0-.87.31-1.6.94-2.21.63-.61,1.38-.91,2.24-.91.69,0,1.27.23,1.72.68s.68,1.03.68,1.72c0,.91-.3,1.67-.91,2.27-.61.61-1.36.91-2.27.91-.69,0-1.27-.23-1.72-.68Z"/>
      <path class="cls-2" d="m574.99,1691.64h4.62l-6.76,34.19h-4.61l6.76-34.19Zm2.05-8.38c-.58-.61-.88-1.32-.88-2.15,0-1,.34-1.83,1.01-2.5.67-.67,1.53-1.01,2.57-1.01.91,0,1.67.29,2.27.88.61.58.91,1.27.91,2.05,0,1.04-.35,1.91-1.04,2.6-.69.69-1.56,1.04-2.6,1.04-.91,0-1.66-.3-2.24-.91Z"/>
      <path class="cls-2" d="m635.21,1694.34c2.15,1.97,3.22,4.69,3.22,8.16,0,1.21-.13,2.51-.39,3.9l-3.9,19.44h-4.62l3.9-19.5c.22-1.21.33-2.25.33-3.12,0-2.47-.75-4.37-2.24-5.69-1.5-1.32-3.69-1.98-6.6-1.98-3.68,0-6.72,1.01-9.1,3.02-2.38,2.01-3.99,5-4.81,8.94l-3.64,18.33h-4.61l6.76-34.19h4.42l-1.1,5.46c3.25-3.81,7.71-5.72,13.39-5.72,3.86,0,6.86.99,9,2.96Z"/>
      <path class="cls-2" d="m679.22,1694.34c2.15,1.97,3.22,4.69,3.22,8.16,0,1.21-.13,2.51-.39,3.9l-3.9,19.44h-4.62l3.9-19.5c.22-1.21.33-2.25.33-3.12,0-2.47-.75-4.37-2.24-5.69-1.5-1.32-3.69-1.98-6.6-1.98-3.68,0-6.72,1.01-9.1,3.02-2.38,2.01-3.99,5-4.81,8.94l-3.64,18.33h-4.61l9.62-48.23h4.62l-3.83,19.17c3.16-3.6,7.52-5.39,13.06-5.39,3.86,0,6.86.99,9,2.96Z"/>
      <path class="cls-2" d="m728.91,1691.64l-6.83,34.19h-4.42l1.1-5.4c-1.65,1.82-3.6,3.23-5.85,4.23-2.25,1-4.74,1.5-7.47,1.5-2.9,0-5.48-.58-7.74-1.76-2.25-1.17-4.01-2.85-5.26-5.04-1.26-2.19-1.89-4.75-1.89-7.7,0-3.86.83-7.32,2.5-10.4,1.67-3.08,3.98-5.49,6.92-7.25,2.95-1.75,6.24-2.63,9.88-2.63,3.25,0,5.98.64,8.19,1.92,2.21,1.28,3.81,3.11,4.81,5.49l1.43-7.15h4.62Zm-14.89,28.37c2.25-1.37,4.02-3.27,5.3-5.72,1.28-2.45,1.92-5.19,1.92-8.22,0-3.34-.99-5.95-2.96-7.83-1.97-1.88-4.73-2.83-8.29-2.83-2.82,0-5.35.69-7.6,2.08-2.25,1.39-4.02,3.3-5.3,5.75-1.28,2.45-1.92,5.19-1.92,8.22,0,3.34.98,5.94,2.96,7.8,1.97,1.86,4.73,2.79,8.29,2.79,2.82,0,5.35-.68,7.6-2.05Zm-9.62-41.76h6.11l7.41,8.06h-4.62l-8.9-8.06Z"/>
      <path class="cls-2" d="m759.39,1715.5c-.17,1.04-.26,1.75-.26,2.14,0,3.03,1.65,4.55,4.94,4.55,1.95,0,3.71-.58,5.27-1.75l1.1,3.51c-1.95,1.47-4.49,2.21-7.6,2.21-2.56,0-4.58-.69-6.08-2.08s-2.24-3.29-2.24-5.72c0-.95.09-1.84.26-2.67l3.96-20.15h-6.04l.71-3.9h6.11l1.49-7.47h4.62l-1.5,7.47h10.4l-.78,3.9h-10.4l-3.97,19.96Z"/>
      <path class="cls-2" d="m794.1,1692.98c2.3-1.06,5.07-1.59,8.32-1.59l-.85,4.49-1.3-.07c-3.68,0-6.71,1.06-9.07,3.18-2.36,2.12-3.96,5.29-4.78,9.49l-3.45,17.36h-4.61l6.76-34.19h4.42l-1.17,6.24c1.52-2.21,3.42-3.84,5.72-4.91Z"/>
      <path class="cls-2" d="m841.62,1691.64l-6.83,34.19h-4.42l1.1-5.4c-1.65,1.82-3.6,3.23-5.85,4.23-2.25,1-4.74,1.5-7.47,1.5-2.9,0-5.48-.58-7.74-1.76-2.25-1.17-4.01-2.85-5.26-5.04-1.26-2.19-1.89-4.75-1.89-7.7,0-3.86.83-7.32,2.5-10.4,1.67-3.08,3.98-5.49,6.92-7.25,2.95-1.75,6.24-2.63,9.88-2.63,3.25,0,5.98.64,8.19,1.92,2.21,1.28,3.81,3.11,4.81,5.49l1.43-7.15h4.62Zm-14.89,28.37c2.25-1.37,4.02-3.27,5.3-5.72,1.28-2.45,1.92-5.19,1.92-8.22,0-3.34-.99-5.95-2.96-7.83-1.97-1.88-4.73-2.83-8.29-2.83-2.82,0-5.35.69-7.6,2.08-2.25,1.39-4.02,3.3-5.3,5.75-1.28,2.45-1.92,5.19-1.92,8.22,0,3.34.98,5.94,2.96,7.8,1.97,1.86,4.73,2.79,8.29,2.79,2.82,0,5.35-.68,7.6-2.05Z"/>
      <path class="cls-2" d="m854.42,1691.64h4.62l-6.76,34.19h-4.61l6.76-34.19Zm2.05-8.38c-.58-.61-.88-1.32-.88-2.15,0-1,.34-1.83,1.01-2.5.67-.67,1.53-1.01,2.57-1.01.91,0,1.67.29,2.27.88.61.58.91,1.27.91,2.05,0,1.04-.35,1.91-1.04,2.6-.69.69-1.56,1.04-2.6,1.04-.91,0-1.66-.3-2.24-.91Z"/>
    </g>
    <g>
      <path class="cls-2" d="m207.62,1536.98l-9.1,45.5h-4.74l8.25-41.34h-10.73l.85-4.16h15.47Z"/>
      <path class="cls-2" d="m231.09,1536.98l-9.1,45.5h-4.74l8.25-41.34h-10.73l.85-4.16h15.47Z"/>
      <path class="cls-2" d="m234.47,1581.83c-.65-.65-.98-1.45-.98-2.41,0-1.04.36-1.92,1.07-2.63.71-.71,1.57-1.07,2.57-1.07s1.74.33,2.37.97c.63.65.94,1.45.94,2.41,0,1.04-.36,1.92-1.07,2.63-.72.71-1.55,1.07-2.5,1.07s-1.75-.33-2.4-.97Zm5.52-27.69c-.65-.65-.98-1.45-.98-2.41,0-1.04.36-1.92,1.07-2.63s1.57-1.07,2.57-1.07,1.74.33,2.37.98c.63.65.94,1.45.94,2.41,0,1.04-.36,1.92-1.07,2.63-.72.71-1.55,1.07-2.5,1.07s-1.76-.32-2.41-.97Z"/>
      <path class="cls-2" d="m268.33,1536.98l-9.1,45.5h-4.74l8.25-41.34h-10.73l.85-4.16h15.47Z"/>
      <path class="cls-2" d="m291.8,1536.98l-9.1,45.5h-4.74l8.25-41.34h-10.73l.85-4.16h15.47Z"/>
      <path class="cls-2" d="m88.68,1656.32h24.7l-.85,4.16h-31.98l.72-3.31,22.75-18.46c3.21-2.56,5.42-4.78,6.63-6.66,1.21-1.88,1.82-3.87,1.82-5.95,0-2.3-.81-4.09-2.44-5.39-1.62-1.3-4.08-1.95-7.38-1.95-2.38,0-4.67.46-6.86,1.36-2.19.91-4.08,2.19-5.69,3.84l-3.25-2.8c1.86-2.04,4.25-3.64,7.15-4.81,2.9-1.17,6-1.75,9.29-1.75,4.46,0,7.91.99,10.33,2.96,2.43,1.97,3.64,4.63,3.64,7.96,0,2.69-.74,5.26-2.21,7.74-1.47,2.47-4.07,5.2-7.8,8.19l-18.59,14.88Z"/>
      <path class="cls-2" d="m125.89,1656.52c-2.62-2.9-3.93-6.93-3.93-12.09s.93-10.08,2.79-14.66c1.86-4.57,4.53-8.24,8-11.02,3.47-2.77,7.45-4.16,11.96-4.16s8.27,1.45,10.89,4.35c2.62,2.9,3.93,6.93,3.93,12.09s-.93,10.09-2.79,14.66c-1.86,4.57-4.53,8.25-7.99,11.02-3.47,2.77-7.45,4.16-11.96,4.16s-8.27-1.45-10.89-4.36Zm20.64-3.74c2.69-2.54,4.73-5.77,6.14-9.72,1.41-3.94,2.11-7.93,2.11-11.96s-.92-6.96-2.76-9.07c-1.84-2.1-4.41-3.15-7.7-3.15-3.55,0-6.67,1.27-9.36,3.8-2.69,2.53-4.73,5.77-6.14,9.72-1.41,3.94-2.11,7.93-2.11,11.96s.92,6.97,2.76,9.07c1.84,2.1,4.41,3.15,7.7,3.15,3.55,0,6.67-1.27,9.36-3.8Z"/>
      <path class="cls-2" d="m186.96,1605.75h4.48l-33.54,61.23h-4.48l33.54-61.23Z"/>
      <path class="cls-2" d="m218.35,1618.3l-16.06,16.25c3.9.3,6.9,1.45,9,3.44,2.1,1.99,3.15,4.66,3.15,8,0,2.9-.78,5.48-2.34,7.74-1.56,2.25-3.75,4.01-6.56,5.26-2.82,1.26-6.07,1.89-9.75,1.89-3.47,0-6.56-.53-9.29-1.59-2.73-1.06-4.83-2.5-6.31-4.32l2.6-3.64c1.26,1.6,3.04,2.88,5.36,3.83,2.32.95,4.95,1.43,7.9,1.43,4.25,0,7.57-.93,9.98-2.79,2.4-1.86,3.61-4.38,3.61-7.54,0-5.24-3.66-7.87-10.99-7.87h-2.92l.71-3.45,15.6-15.79h-23.07l.84-4.16h29.19l-.65,3.32Z"/>
      <path class="cls-2" d="m245.39,1605.75h4.48l-33.54,61.23h-4.48l33.54-61.23Z"/>
      <path class="cls-2" d="m247.27,1656.32h24.7l-.85,4.16h-31.98l.72-3.31,22.75-18.46c3.21-2.56,5.42-4.78,6.63-6.66,1.21-1.88,1.82-3.87,1.82-5.95,0-2.3-.81-4.09-2.44-5.39-1.62-1.3-4.08-1.95-7.38-1.95-2.38,0-4.67.46-6.86,1.36-2.19.91-4.08,2.19-5.69,3.84l-3.25-2.8c1.86-2.04,4.25-3.64,7.15-4.81,2.9-1.17,6-1.75,9.29-1.75,4.46,0,7.91.99,10.33,2.96,2.43,1.97,3.64,4.63,3.64,7.96,0,2.69-.74,5.26-2.21,7.74-1.47,2.47-4.07,5.2-7.8,8.19l-18.59,14.88Z"/>
      <path class="cls-2" d="m284.49,1656.52c-2.62-2.9-3.93-6.93-3.93-12.09s.93-10.08,2.79-14.66c1.86-4.57,4.53-8.24,8-11.02,3.47-2.77,7.45-4.16,11.96-4.16s8.27,1.45,10.89,4.35c2.62,2.9,3.93,6.93,3.93,12.09s-.93,10.09-2.79,14.66c-1.86,4.57-4.53,8.25-7.99,11.02-3.47,2.77-7.45,4.16-11.96,4.16s-8.27-1.45-10.89-4.36Zm20.64-3.74c2.69-2.54,4.73-5.77,6.14-9.72,1.41-3.94,2.11-7.93,2.11-11.96s-.92-6.96-2.76-9.07c-1.84-2.1-4.41-3.15-7.7-3.15-3.55,0-6.67,1.27-9.36,3.8-2.69,2.53-4.73,5.77-6.14,9.72-1.41,3.94-2.11,7.93-2.11,11.96s.92,6.97,2.76,9.07c1.84,2.1,4.41,3.15,7.7,3.15,3.55,0,6.67-1.27,9.36-3.8Z"/>
      <path class="cls-2" d="m326.83,1656.32h24.7l-.85,4.16h-31.98l.72-3.31,22.75-18.46c3.21-2.56,5.42-4.78,6.63-6.66,1.21-1.88,1.82-3.87,1.82-5.95,0-2.3-.81-4.09-2.44-5.39-1.62-1.3-4.08-1.95-7.38-1.95-2.38,0-4.67.46-6.86,1.36-2.19.91-4.08,2.19-5.69,3.84l-3.25-2.8c1.86-2.04,4.25-3.64,7.15-4.81,2.9-1.17,6-1.75,9.29-1.75,4.46,0,7.91.99,10.33,2.96,2.43,1.97,3.64,4.63,3.64,7.96,0,2.69-.74,5.26-2.21,7.74-1.47,2.47-4.07,5.2-7.8,8.19l-18.59,14.88Z"/>
      <path class="cls-2" d="m396.12,1648.52h-9.17l-2.41,11.96h-4.68l2.4-11.96h-25.61l.65-3.38,29.77-30.16h5.52l-28.86,29.38h19.5l2.15-10.53h4.48l-2.08,10.53h9.1l-.78,4.16Z"/>
    </g>
  </g>
  <g>
    <line class="cls-1" x1="408.39" y1="124" x2="474.39" y2="124"/>
    <text class="cls-3" transform="translate(495.95 124.06)"><tspan x="0" y="0">Dn l</tspan></text>
    <g>
      <path class="cls-2" d="m189.78,78.18l-9.1,45.5h-4.74l8.25-41.34h-10.73l.85-4.16h15.47Z"/>
      <path class="cls-2" d="m228.26,81.49l-16.06,16.25c3.9.3,6.9,1.45,9,3.44,2.1,1.99,3.15,4.66,3.15,8,0,2.9-.78,5.48-2.34,7.74-1.56,2.25-3.75,4.01-6.56,5.26-2.82,1.26-6.07,1.89-9.75,1.89-3.47,0-6.56-.53-9.29-1.59-2.73-1.06-4.83-2.5-6.31-4.32l2.6-3.64c1.26,1.6,3.04,2.88,5.36,3.83,2.32.95,4.95,1.43,7.9,1.43,4.25,0,7.57-.93,9.98-2.79,2.4-1.86,3.61-4.38,3.61-7.54,0-5.24-3.66-7.87-10.99-7.87h-2.92l.71-3.44,15.6-15.79h-23.07l.84-4.16h29.19l-.65,3.31Z"/>
      <path class="cls-2" d="m229.82,123.03c-.65-.65-.98-1.45-.98-2.41,0-1.04.36-1.92,1.07-2.63.71-.71,1.57-1.07,2.57-1.07s1.74.32,2.37.97c.63.65.94,1.45.94,2.41,0,1.04-.36,1.92-1.07,2.63-.72.71-1.55,1.07-2.5,1.07s-1.75-.33-2.4-.98Zm5.52-27.69c-.65-.65-.98-1.45-.98-2.41,0-1.04.36-1.92,1.07-2.63s1.57-1.07,2.57-1.07,1.74.33,2.37.98c.63.65.94,1.45.94,2.41,0,1.04-.36,1.92-1.07,2.63-.72.71-1.55,1.07-2.5,1.07s-1.76-.32-2.41-.97Z"/>
      <path class="cls-2" d="m249.74,119.71c-2.62-2.9-3.93-6.93-3.93-12.09s.93-10.08,2.79-14.66c1.86-4.57,4.53-8.24,8-11.02,3.47-2.77,7.45-4.16,11.96-4.16s8.27,1.45,10.89,4.35c2.62,2.9,3.93,6.93,3.93,12.09s-.93,10.09-2.79,14.66c-1.86,4.57-4.53,8.25-7.99,11.02-3.47,2.77-7.45,4.16-11.96,4.16s-8.27-1.45-10.89-4.35Zm20.64-3.74c2.69-2.53,4.73-5.77,6.14-9.72,1.41-3.94,2.11-7.93,2.11-11.96s-.92-6.97-2.76-9.07c-1.84-2.1-4.41-3.15-7.7-3.15-3.55,0-6.67,1.27-9.36,3.8-2.69,2.53-4.73,5.77-6.14,9.72-1.41,3.94-2.11,7.93-2.11,11.96s.92,6.97,2.76,9.07c1.84,2.1,4.41,3.15,7.7,3.15,3.55,0,6.67-1.27,9.36-3.8Z"/>
      <path class="cls-2" d="m292.77,119.71c-2.62-2.9-3.93-6.93-3.93-12.09s.93-10.08,2.79-14.66c1.86-4.57,4.53-8.24,8-11.02,3.47-2.77,7.45-4.16,11.96-4.16s8.27,1.45,10.89,4.35c2.62,2.9,3.93,6.93,3.93,12.09s-.93,10.09-2.79,14.66c-1.86,4.57-4.53,8.25-7.99,11.02-3.47,2.77-7.45,4.16-11.96,4.16s-8.27-1.45-10.89-4.35Zm20.64-3.74c2.69-2.53,4.73-5.77,6.14-9.72,1.41-3.94,2.11-7.93,2.11-11.96s-.92-6.97-2.76-9.07c-1.84-2.1-4.41-3.15-7.7-3.15-3.55,0-6.67,1.27-9.36,3.8-2.69,2.53-4.73,5.77-6.14,9.72-1.41,3.94-2.11,7.93-2.11,11.96s.92,6.97,2.76,9.07c1.84,2.1,4.41,3.15,7.7,3.15,3.55,0,6.67-1.27,9.36-3.8Z"/>
      <path class="cls-2" d="m119.81,156.18l-9.1,45.5h-4.74l8.25-41.34h-10.73l.85-4.16h15.47Z"/>
      <path class="cls-2" d="m154.98,160.43c3.03,3.1,4.55,7.55,4.55,13.36,0,4.64-.87,9.11-2.6,13.42-1.73,4.31-4.47,7.86-8.22,10.66-3.75,2.8-8.5,4.19-14.27,4.19-4.68,0-8.3-.85-10.85-2.54l2.21-3.77c2.25,1.47,5.24,2.21,8.97,2.21,4.2,0,7.75-1.01,10.63-3.02,2.88-2.02,5.06-4.62,6.53-7.83,1.47-3.21,2.34-6.63,2.6-10.27-1.47,2.25-3.39,3.91-5.75,4.97-2.36,1.06-4.95,1.59-7.77,1.59s-5.21-.51-7.44-1.53c-2.23-1.02-3.99-2.49-5.27-4.42-1.28-1.93-1.92-4.21-1.92-6.86,0-2.99.7-5.6,2.11-7.83,1.41-2.23,3.36-3.95,5.85-5.17,2.49-1.21,5.32-1.82,8.48-1.82,5.07,0,9.12,1.55,12.16,4.65Zm-6.63,17.65c1.86-.91,3.3-2.15,4.32-3.74,1.02-1.58,1.53-3.33,1.53-5.23,0-1.6-.43-3.12-1.3-4.55-.87-1.43-2.16-2.59-3.87-3.48-1.71-.89-3.76-1.33-6.14-1.33-3.55,0-6.4.94-8.55,2.83-2.15,1.89-3.22,4.45-3.22,7.7,0,2.9,1,5.16,2.99,6.76,1.99,1.6,4.62,2.4,7.87,2.4,2.38,0,4.51-.46,6.37-1.37Z"/>
      <path class="cls-2" d="m186.96,146.95h4.48l-33.54,61.23h-4.48l33.54-61.23Z"/>
      <path class="cls-2" d="m218.35,159.49l-16.06,16.25c3.9.3,6.9,1.45,9,3.44,2.1,1.99,3.15,4.66,3.15,8,0,2.9-.78,5.48-2.34,7.74-1.56,2.25-3.75,4.01-6.56,5.26-2.82,1.26-6.07,1.89-9.75,1.89-3.47,0-6.56-.53-9.29-1.59-2.73-1.06-4.83-2.5-6.31-4.32l2.6-3.64c1.26,1.6,3.04,2.88,5.36,3.83,2.32.95,4.95,1.43,7.9,1.43,4.25,0,7.57-.93,9.98-2.79,2.4-1.86,3.61-4.38,3.61-7.54,0-5.24-3.66-7.87-10.99-7.87h-2.92l.71-3.44,15.6-15.79h-23.07l.84-4.16h29.19l-.65,3.31Z"/>
      <path class="cls-2" d="m245.39,146.95h4.48l-33.54,61.23h-4.48l33.54-61.23Z"/>
      <path class="cls-2" d="m247.27,197.51h24.7l-.85,4.16h-31.98l.72-3.31,22.75-18.46c3.21-2.56,5.42-4.78,6.63-6.66,1.21-1.88,1.82-3.87,1.82-5.95,0-2.3-.81-4.1-2.44-5.4-1.62-1.3-4.08-1.95-7.38-1.95-2.38,0-4.67.46-6.86,1.36-2.19.91-4.08,2.19-5.69,3.84l-3.25-2.8c1.86-2.04,4.25-3.64,7.15-4.81,2.9-1.17,6-1.76,9.29-1.76,4.46,0,7.91.99,10.33,2.96,2.43,1.97,3.64,4.63,3.64,7.96,0,2.69-.74,5.27-2.21,7.74-1.47,2.47-4.07,5.2-7.8,8.19l-18.59,14.88Z"/>
      <path class="cls-2" d="m284.49,197.71c-2.62-2.9-3.93-6.93-3.93-12.09s.93-10.08,2.79-14.66c1.86-4.57,4.53-8.24,8-11.02,3.47-2.77,7.45-4.16,11.96-4.16s8.27,1.45,10.89,4.35c2.62,2.9,3.93,6.93,3.93,12.09s-.93,10.09-2.79,14.66c-1.86,4.57-4.53,8.25-7.99,11.02-3.47,2.77-7.45,4.16-11.96,4.16s-8.27-1.45-10.89-4.35Zm20.64-3.74c2.69-2.53,4.73-5.77,6.14-9.72,1.41-3.94,2.11-7.93,2.11-11.96s-.92-6.97-2.76-9.07c-1.84-2.1-4.41-3.15-7.7-3.15-3.55,0-6.67,1.27-9.36,3.8-2.69,2.53-4.73,5.77-6.14,9.72-1.41,3.94-2.11,7.93-2.11,11.96s.92,6.97,2.76,9.07c1.84,2.1,4.41,3.15,7.7,3.15,3.55,0,6.67-1.27,9.36-3.8Z"/>
      <path class="cls-2" d="m326.83,197.51h24.7l-.85,4.16h-31.98l.72-3.31,22.75-18.46c3.21-2.56,5.42-4.78,6.63-6.66,1.21-1.88,1.82-3.87,1.82-5.95,0-2.3-.81-4.1-2.44-5.4-1.62-1.3-4.08-1.95-7.38-1.95-2.38,0-4.67.46-6.86,1.36-2.19.91-4.08,2.19-5.69,3.84l-3.25-2.8c1.86-2.04,4.25-3.64,7.15-4.81,2.9-1.17,6-1.76,9.29-1.76,4.46,0,7.91.99,10.33,2.96,2.43,1.97,3.64,4.63,3.64,7.96,0,2.69-.74,5.27-2.21,7.74-1.47,2.47-4.07,5.2-7.8,8.19l-18.59,14.88Z"/>
      <path class="cls-2" d="m396.12,189.72h-9.17l-2.41,11.96h-4.68l2.4-11.96h-25.61l.65-3.38,29.77-30.16h5.52l-28.86,29.38h19.5l2.15-10.53h4.48l-2.08,10.53h9.1l-.78,4.16Z"/>
    </g>
  </g>
</svg>